<svg xmlns="http://www.w3.org/2000/svg" xmlns:xlink="http://www.w3.org/1999/xlink" viewBox="0 0 1440 880">
    <defs>
        <linearGradient id="linear-gradient" x1="-.4" y1="40" x2="80.4" y2="40" gradientUnits="userSpaceOnUse">
            <stop offset="0" stop-color="#00aaa6" stop-opacity=".2"/>
            <stop offset=".3" stop-color="#039d9c" stop-opacity=".2"/>
            <stop offset=".8" stop-color="#0e7b83" stop-opacity="0"/>
            <stop offset="1" stop-color="#126f7a" stop-opacity="0"/>
        </linearGradient>
        <linearGradient id="linear-gradient1" x1="79.6" x2="160.4" xlink:href="#linear-gradient"/>
        <linearGradient id="linear-gradient2" x1="159.6" x2="240.4" xlink:href="#linear-gradient"/>
        <linearGradient id="linear-gradient3" x1="239.6" x2="320.4" xlink:href="#linear-gradient"/>
        <linearGradient id="linear-gradient4" x1="319.6" x2="400.4" xlink:href="#linear-gradient"/>
        <linearGradient id="linear-gradient5" x1="399.6" x2="480.4" xlink:href="#linear-gradient"/>
        <linearGradient id="linear-gradient6" x1="479.6" x2="560.4" xlink:href="#linear-gradient"/>
        <linearGradient id="linear-gradient7" x1="559.6" x2="640.4" xlink:href="#linear-gradient"/>
        <linearGradient id="linear-gradient8" x1="639.6" x2="720.4" xlink:href="#linear-gradient"/>
        <linearGradient id="linear-gradient9" x1="719.6" x2="800.4" xlink:href="#linear-gradient"/>
        <linearGradient id="linear-gradient10" x1="799.6" x2="880.4" xlink:href="#linear-gradient"/>
        <linearGradient id="linear-gradient11" x1="879.6" x2="960.4" xlink:href="#linear-gradient"/>
        <linearGradient id="linear-gradient12" x1="959.6" x2="1040.4" xlink:href="#linear-gradient"/>
        <linearGradient id="linear-gradient13" x1="1039.6" x2="1120.4" xlink:href="#linear-gradient"/>
        <linearGradient id="linear-gradient14" x1="1119.6" x2="1200.4" xlink:href="#linear-gradient"/>
        <linearGradient id="linear-gradient15" x1="1199.6" x2="1280.4" xlink:href="#linear-gradient"/>
        <linearGradient id="linear-gradient16" x1="1279.6" x2="1360.4" xlink:href="#linear-gradient"/>
        <linearGradient id="linear-gradient17" x1="1359.6" x2="1440.4" xlink:href="#linear-gradient"/>
        <linearGradient id="linear-gradient18" y1="120" y2="120" xlink:href="#linear-gradient"/>
        <linearGradient id="linear-gradient19" x1="79.6" y1="120" x2="160.4" y2="120" xlink:href="#linear-gradient"/>
        <linearGradient id="linear-gradient20" x1="159.6" y1="120" x2="240.4" y2="120" xlink:href="#linear-gradient"/>
        <linearGradient id="linear-gradient21" x1="239.6" y1="120" x2="320.4" y2="120" xlink:href="#linear-gradient"/>
        <linearGradient id="linear-gradient22" x1="319.6" y1="120" x2="400.4" y2="120" xlink:href="#linear-gradient"/>
        <linearGradient id="linear-gradient23" x1="399.6" y1="120" x2="480.4" y2="120" xlink:href="#linear-gradient"/>
        <linearGradient id="linear-gradient24" x1="479.6" y1="120" x2="560.4" y2="120" xlink:href="#linear-gradient"/>
        <linearGradient id="linear-gradient25" x1="559.6" y1="120" x2="640.4" y2="120" xlink:href="#linear-gradient"/>
        <linearGradient id="linear-gradient26" x1="639.6" y1="120" x2="720.4" y2="120" xlink:href="#linear-gradient"/>
        <linearGradient id="linear-gradient27" x1="719.6" y1="120" x2="800.4" y2="120" xlink:href="#linear-gradient"/>
        <linearGradient id="linear-gradient28" x1="799.6" y1="120" x2="880.4" y2="120" xlink:href="#linear-gradient"/>
        <linearGradient id="linear-gradient29" x1="879.6" y1="120" x2="960.4" y2="120" xlink:href="#linear-gradient"/>
        <linearGradient id="linear-gradient30" x1="959.6" y1="120" x2="1040.4" y2="120" xlink:href="#linear-gradient"/>
        <linearGradient id="linear-gradient31" x1="1039.6" y1="120" x2="1120.4" y2="120" xlink:href="#linear-gradient"/>
        <linearGradient id="linear-gradient32" x1="1119.6" y1="120" x2="1200.4" y2="120" xlink:href="#linear-gradient"/>
        <linearGradient id="linear-gradient33" x1="1199.6" y1="120" x2="1280.4" y2="120" xlink:href="#linear-gradient"/>
        <linearGradient id="linear-gradient34" x1="1279.6" y1="120" x2="1360.4" y2="120" xlink:href="#linear-gradient"/>
        <linearGradient id="linear-gradient35" x1="1359.6" y1="120" x2="1440.4" y2="120" xlink:href="#linear-gradient"/>
        <linearGradient id="linear-gradient36" y1="200" y2="200" xlink:href="#linear-gradient"/>
        <linearGradient id="linear-gradient37" x1="79.6" y1="200" x2="160.4" y2="200" xlink:href="#linear-gradient"/>
        <linearGradient id="linear-gradient38" x1="159.6" y1="200" x2="240.4" y2="200" xlink:href="#linear-gradient"/>
        <linearGradient id="linear-gradient39" x1="239.6" y1="200" x2="320.4" y2="200" xlink:href="#linear-gradient"/>
        <linearGradient id="linear-gradient40" x1="319.6" y1="200" x2="400.4" y2="200" xlink:href="#linear-gradient"/>
        <linearGradient id="linear-gradient41" x1="399.6" y1="200" x2="480.4" y2="200" xlink:href="#linear-gradient"/>
        <linearGradient id="linear-gradient42" x1="479.6" y1="200" x2="560.4" y2="200" xlink:href="#linear-gradient"/>
        <linearGradient id="linear-gradient43" x1="559.6" y1="200" x2="640.4" y2="200" xlink:href="#linear-gradient"/>
        <linearGradient id="linear-gradient44" x1="639.6" y1="200" x2="720.4" y2="200" xlink:href="#linear-gradient"/>
        <linearGradient id="linear-gradient45" x1="719.6" y1="200" x2="800.4" y2="200" xlink:href="#linear-gradient"/>
        <linearGradient id="linear-gradient46" x1="799.6" y1="200" x2="880.4" y2="200" xlink:href="#linear-gradient"/>
        <linearGradient id="linear-gradient47" x1="879.6" y1="200" x2="960.4" y2="200" xlink:href="#linear-gradient"/>
        <linearGradient id="linear-gradient48" x1="959.6" y1="200" x2="1040.4" y2="200" xlink:href="#linear-gradient"/>
        <linearGradient id="linear-gradient49" x1="1039.6" y1="200" x2="1120.4" y2="200" xlink:href="#linear-gradient"/>
        <linearGradient id="linear-gradient50" x1="1119.6" y1="200" x2="1200.4" y2="200" xlink:href="#linear-gradient"/>
        <linearGradient id="linear-gradient51" x1="1199.6" y1="200" x2="1280.4" y2="200" xlink:href="#linear-gradient"/>
        <linearGradient id="linear-gradient52" x1="1279.6" y1="200" x2="1360.4" y2="200" xlink:href="#linear-gradient"/>
        <linearGradient id="linear-gradient53" x1="1359.6" y1="200" x2="1440.4" y2="200" xlink:href="#linear-gradient"/>
        <linearGradient id="linear-gradient54" y1="280" y2="280" xlink:href="#linear-gradient"/>
        <linearGradient id="linear-gradient55" x1="79.6" y1="280" x2="160.4" y2="280" xlink:href="#linear-gradient"/>
        <linearGradient id="linear-gradient56" x1="159.6" y1="280" x2="240.4" y2="280" xlink:href="#linear-gradient"/>
        <linearGradient id="linear-gradient57" x1="239.6" y1="280" x2="320.4" y2="280" xlink:href="#linear-gradient"/>
        <linearGradient id="linear-gradient58" x1="319.6" y1="280" x2="400.4" y2="280" xlink:href="#linear-gradient"/>
        <linearGradient id="linear-gradient59" x1="399.6" y1="280" x2="480.4" y2="280" xlink:href="#linear-gradient"/>
        <linearGradient id="linear-gradient60" x1="479.6" y1="280" x2="560.4" y2="280" xlink:href="#linear-gradient"/>
        <linearGradient id="linear-gradient61" x1="559.6" y1="280" x2="640.4" y2="280" xlink:href="#linear-gradient"/>
        <linearGradient id="linear-gradient62" x1="639.6" y1="280" x2="720.4" y2="280" xlink:href="#linear-gradient"/>
        <linearGradient id="linear-gradient63" x1="719.6" y1="280" x2="800.4" y2="280" xlink:href="#linear-gradient"/>
        <linearGradient id="linear-gradient64" x1="799.6" y1="280" x2="880.4" y2="280" xlink:href="#linear-gradient"/>
        <linearGradient id="linear-gradient65" x1="879.6" y1="280" x2="960.4" y2="280" xlink:href="#linear-gradient"/>
        <linearGradient id="linear-gradient66" x1="959.6" y1="280" x2="1040.4" y2="280" xlink:href="#linear-gradient"/>
        <linearGradient id="linear-gradient67" x1="1039.6" y1="280" x2="1120.4" y2="280" xlink:href="#linear-gradient"/>
        <linearGradient id="linear-gradient68" x1="1119.6" y1="280" x2="1200.4" y2="280" xlink:href="#linear-gradient"/>
        <linearGradient id="linear-gradient69" x1="1199.6" y1="280" x2="1280.4" y2="280" xlink:href="#linear-gradient"/>
        <linearGradient id="linear-gradient70" x1="1279.6" y1="280" x2="1360.4" y2="280" xlink:href="#linear-gradient"/>
        <linearGradient id="linear-gradient71" x1="1359.6" y1="280" x2="1440.4" y2="280" xlink:href="#linear-gradient"/>
        <linearGradient id="linear-gradient72" y1="360" y2="360" xlink:href="#linear-gradient"/>
        <linearGradient id="linear-gradient73" x1="79.6" y1="360" x2="160.4" y2="360" xlink:href="#linear-gradient"/>
        <linearGradient id="linear-gradient74" x1="159.6" y1="360" x2="240.4" y2="360" xlink:href="#linear-gradient"/>
        <linearGradient id="linear-gradient75" x1="239.6" y1="360" x2="320.4" y2="360" xlink:href="#linear-gradient"/>
        <linearGradient id="linear-gradient76" x1="319.6" y1="360" x2="400.4" y2="360" xlink:href="#linear-gradient"/>
        <linearGradient id="linear-gradient77" x1="399.6" y1="360" x2="480.4" y2="360" xlink:href="#linear-gradient"/>
        <linearGradient id="linear-gradient78" x1="479.6" y1="360" x2="560.4" y2="360" xlink:href="#linear-gradient"/>
        <linearGradient id="linear-gradient79" x1="559.6" y1="360" x2="640.4" y2="360" xlink:href="#linear-gradient"/>
        <linearGradient id="linear-gradient80" x1="639.6" y1="360" x2="720.4" y2="360" xlink:href="#linear-gradient"/>
        <linearGradient id="linear-gradient81" x1="719.6" y1="360" x2="800.4" y2="360" xlink:href="#linear-gradient"/>
        <linearGradient id="linear-gradient82" x1="799.6" y1="360" x2="880.4" y2="360" xlink:href="#linear-gradient"/>
        <linearGradient id="linear-gradient83" x1="879.6" y1="360" x2="960.4" y2="360" xlink:href="#linear-gradient"/>
        <linearGradient id="linear-gradient84" x1="959.6" y1="360" x2="1040.4" y2="360" xlink:href="#linear-gradient"/>
        <linearGradient id="linear-gradient85" x1="1039.6" y1="360" x2="1120.4" y2="360" xlink:href="#linear-gradient"/>
        <linearGradient id="linear-gradient86" x1="1119.6" y1="360" x2="1200.4" y2="360" xlink:href="#linear-gradient"/>
        <linearGradient id="linear-gradient87" x1="1199.6" y1="360" x2="1280.4" y2="360" xlink:href="#linear-gradient"/>
        <linearGradient id="linear-gradient88" x1="1279.6" y1="360" x2="1360.4" y2="360" xlink:href="#linear-gradient"/>
        <linearGradient id="linear-gradient89" x1="1359.6" y1="360" x2="1440.4" y2="360" xlink:href="#linear-gradient"/>
        <linearGradient id="linear-gradient90" y1="440" y2="440" xlink:href="#linear-gradient"/>
        <linearGradient id="linear-gradient91" x1="79.6" y1="440" x2="160.4" y2="440" xlink:href="#linear-gradient"/>
        <linearGradient id="linear-gradient92" x1="159.6" y1="440" x2="240.4" y2="440" xlink:href="#linear-gradient"/>
        <linearGradient id="linear-gradient93" x1="239.6" y1="440" x2="320.4" y2="440" xlink:href="#linear-gradient"/>
        <linearGradient id="linear-gradient94" x1="319.6" y1="440" x2="400.4" y2="440" xlink:href="#linear-gradient"/>
        <linearGradient id="linear-gradient95" x1="399.6" y1="440" x2="480.4" y2="440" xlink:href="#linear-gradient"/>
        <linearGradient id="linear-gradient96" x1="479.6" y1="440" x2="560.4" y2="440" xlink:href="#linear-gradient"/>
        <linearGradient id="linear-gradient97" x1="559.6" y1="440" x2="640.4" y2="440" xlink:href="#linear-gradient"/>
        <linearGradient id="linear-gradient98" x1="639.6" y1="440" x2="720.4" y2="440" xlink:href="#linear-gradient"/>
        <linearGradient id="linear-gradient99" x1="719.6" y1="440" x2="800.4" y2="440" xlink:href="#linear-gradient"/>
        <linearGradient id="linear-gradient100" x1="799.6" y1="440" x2="880.4" y2="440" xlink:href="#linear-gradient"/>
        <linearGradient id="linear-gradient101" x1="879.6" y1="440" x2="960.4" y2="440" xlink:href="#linear-gradient"/>
        <linearGradient id="linear-gradient102" x1="959.6" y1="440" x2="1040.4" y2="440" xlink:href="#linear-gradient"/>
        <linearGradient id="linear-gradient103" x1="1039.6" y1="440" x2="1120.4" y2="440" xlink:href="#linear-gradient"/>
        <linearGradient id="linear-gradient104" x1="1119.6" y1="440" x2="1200.4" y2="440" xlink:href="#linear-gradient"/>
        <linearGradient id="linear-gradient105" x1="1199.6" y1="440" x2="1280.4" y2="440" xlink:href="#linear-gradient"/>
        <linearGradient id="linear-gradient106" x1="1279.6" y1="440" x2="1360.4" y2="440" xlink:href="#linear-gradient"/>
        <linearGradient id="linear-gradient107" x1="1359.6" y1="440" x2="1440.4" y2="440" xlink:href="#linear-gradient"/>
        <linearGradient id="linear-gradient108" y1="520" y2="520" xlink:href="#linear-gradient"/>
        <linearGradient id="linear-gradient109" x1="79.6" y1="520" x2="160.4" y2="520" xlink:href="#linear-gradient"/>
        <linearGradient id="linear-gradient110" x1="159.6" y1="520" x2="240.4" y2="520" xlink:href="#linear-gradient"/>
        <linearGradient id="linear-gradient111" x1="239.6" y1="520" x2="320.4" y2="520" xlink:href="#linear-gradient"/>
        <linearGradient id="linear-gradient112" x1="319.6" y1="520" x2="400.4" y2="520" xlink:href="#linear-gradient"/>
        <linearGradient id="linear-gradient113" x1="399.6" y1="520" x2="480.4" y2="520" xlink:href="#linear-gradient"/>
        <linearGradient id="linear-gradient114" x1="479.6" y1="520" x2="560.4" y2="520" xlink:href="#linear-gradient"/>
        <linearGradient id="linear-gradient115" x1="559.6" y1="520" x2="640.4" y2="520" xlink:href="#linear-gradient"/>
        <linearGradient id="linear-gradient116" x1="639.6" y1="520" x2="720.4" y2="520" xlink:href="#linear-gradient"/>
        <linearGradient id="linear-gradient117" x1="719.6" y1="520" x2="800.4" y2="520" xlink:href="#linear-gradient"/>
        <linearGradient id="linear-gradient118" x1="799.6" y1="520" x2="880.4" y2="520" xlink:href="#linear-gradient"/>
        <linearGradient id="linear-gradient119" x1="879.6" y1="520" x2="960.4" y2="520" xlink:href="#linear-gradient"/>
        <linearGradient id="linear-gradient120" x1="959.6" y1="520" x2="1040.4" y2="520" xlink:href="#linear-gradient"/>
        <linearGradient id="linear-gradient121" x1="1039.6" y1="520" x2="1120.4" y2="520" xlink:href="#linear-gradient"/>
        <linearGradient id="linear-gradient122" x1="1119.6" y1="520" x2="1200.4" y2="520" xlink:href="#linear-gradient"/>
        <linearGradient id="linear-gradient123" x1="1199.6" y1="520" x2="1280.4" y2="520" xlink:href="#linear-gradient"/>
        <linearGradient id="linear-gradient124" x1="1279.6" y1="520" x2="1360.4" y2="520" xlink:href="#linear-gradient"/>
        <linearGradient id="linear-gradient125" x1="1359.6" y1="520" x2="1440.4" y2="520" xlink:href="#linear-gradient"/>
        <linearGradient id="linear-gradient126" y1="600" y2="600" xlink:href="#linear-gradient"/>
        <linearGradient id="linear-gradient127" x1="79.6" y1="600" x2="160.4" y2="600" xlink:href="#linear-gradient"/>
        <linearGradient id="linear-gradient128" x1="159.6" y1="600" x2="240.4" y2="600" xlink:href="#linear-gradient"/>
        <linearGradient id="linear-gradient129" x1="239.6" y1="600" x2="320.4" y2="600" xlink:href="#linear-gradient"/>
        <linearGradient id="linear-gradient130" x1="319.6" y1="600" x2="400.4" y2="600" xlink:href="#linear-gradient"/>
        <linearGradient id="linear-gradient131" x1="399.6" y1="600" x2="480.4" y2="600" xlink:href="#linear-gradient"/>
        <linearGradient id="linear-gradient132" x1="479.6" y1="600" x2="560.4" y2="600" xlink:href="#linear-gradient"/>
        <linearGradient id="linear-gradient133" x1="559.6" y1="600" x2="640.4" y2="600" xlink:href="#linear-gradient"/>
        <linearGradient id="linear-gradient134" x1="639.6" y1="600" x2="720.4" y2="600" xlink:href="#linear-gradient"/>
        <linearGradient id="linear-gradient135" x1="719.6" y1="600" x2="800.4" y2="600" xlink:href="#linear-gradient"/>
        <linearGradient id="linear-gradient136" x1="799.6" y1="600" x2="880.4" y2="600" xlink:href="#linear-gradient"/>
        <linearGradient id="linear-gradient137" x1="879.6" y1="600" x2="960.4" y2="600" xlink:href="#linear-gradient"/>
        <linearGradient id="linear-gradient138" x1="959.6" y1="600" x2="1040.4" y2="600" xlink:href="#linear-gradient"/>
        <linearGradient id="linear-gradient139" x1="1039.6" y1="600" x2="1120.4" y2="600" xlink:href="#linear-gradient"/>
        <linearGradient id="linear-gradient140" x1="1119.6" y1="600" x2="1200.4" y2="600" xlink:href="#linear-gradient"/>
        <linearGradient id="linear-gradient141" x1="1199.6" y1="600" x2="1280.4" y2="600" xlink:href="#linear-gradient"/>
        <linearGradient id="linear-gradient142" x1="1279.6" y1="600" x2="1360.4" y2="600" xlink:href="#linear-gradient"/>
        <linearGradient id="linear-gradient143" x1="1359.6" y1="600" x2="1440.4" y2="600" xlink:href="#linear-gradient"/>
        <linearGradient id="linear-gradient144" y1="680" y2="680" xlink:href="#linear-gradient"/>
        <linearGradient id="linear-gradient145" x1="79.6" y1="680" x2="160.4" y2="680" xlink:href="#linear-gradient"/>
        <linearGradient id="linear-gradient146" x1="159.6" y1="680" x2="240.4" y2="680" xlink:href="#linear-gradient"/>
        <linearGradient id="linear-gradient147" x1="239.6" y1="680" x2="320.4" y2="680" xlink:href="#linear-gradient"/>
        <linearGradient id="linear-gradient148" x1="319.6" y1="680" x2="400.4" y2="680" xlink:href="#linear-gradient"/>
        <linearGradient id="linear-gradient149" x1="399.6" y1="680" x2="480.4" y2="680" xlink:href="#linear-gradient"/>
        <linearGradient id="linear-gradient150" x1="479.6" y1="680" x2="560.4" y2="680" xlink:href="#linear-gradient"/>
        <linearGradient id="linear-gradient151" x1="559.6" y1="680" x2="640.4" y2="680" xlink:href="#linear-gradient"/>
        <linearGradient id="linear-gradient152" x1="639.6" y1="680" x2="720.4" y2="680" xlink:href="#linear-gradient"/>
        <linearGradient id="linear-gradient153" x1="719.6" y1="680" x2="800.4" y2="680" xlink:href="#linear-gradient"/>
        <linearGradient id="linear-gradient154" x1="799.6" y1="680" x2="880.4" y2="680" xlink:href="#linear-gradient"/>
        <linearGradient id="linear-gradient155" x1="879.6" y1="680" x2="960.4" y2="680" xlink:href="#linear-gradient"/>
        <linearGradient id="linear-gradient156" x1="959.6" y1="680" x2="1040.4" y2="680" xlink:href="#linear-gradient"/>
        <linearGradient id="linear-gradient157" x1="1039.6" y1="680" x2="1120.4" y2="680" xlink:href="#linear-gradient"/>
        <linearGradient id="linear-gradient158" x1="1119.6" y1="680" x2="1200.4" y2="680" xlink:href="#linear-gradient"/>
        <linearGradient id="linear-gradient159" x1="1199.6" y1="680" x2="1280.4" y2="680" xlink:href="#linear-gradient"/>
        <linearGradient id="linear-gradient160" x1="1279.6" y1="680" x2="1360.4" y2="680" xlink:href="#linear-gradient"/>
        <linearGradient id="linear-gradient161" x1="1359.6" y1="680" x2="1440.4" y2="680" xlink:href="#linear-gradient"/>
        <linearGradient id="linear-gradient162" y1="760" y2="760" xlink:href="#linear-gradient"/>
        <linearGradient id="linear-gradient163" x1="79.6" y1="760" x2="160.4" y2="760" xlink:href="#linear-gradient"/>
        <linearGradient id="linear-gradient164" x1="159.6" y1="760" x2="240.4" y2="760" xlink:href="#linear-gradient"/>
        <linearGradient id="linear-gradient165" x1="239.6" y1="760" x2="320.4" y2="760" xlink:href="#linear-gradient"/>
        <linearGradient id="linear-gradient166" x1="319.6" y1="760" x2="400.4" y2="760" xlink:href="#linear-gradient"/>
        <linearGradient id="linear-gradient167" x1="399.6" y1="760" x2="480.4" y2="760" xlink:href="#linear-gradient"/>
        <linearGradient id="linear-gradient168" x1="479.6" y1="760" x2="560.4" y2="760" xlink:href="#linear-gradient"/>
        <linearGradient id="linear-gradient169" x1="559.6" y1="760" x2="640.4" y2="760" xlink:href="#linear-gradient"/>
        <linearGradient id="linear-gradient170" x1="639.6" y1="760" x2="720.4" y2="760" xlink:href="#linear-gradient"/>
        <linearGradient id="linear-gradient171" x1="719.6" y1="760" x2="800.4" y2="760" xlink:href="#linear-gradient"/>
        <linearGradient id="linear-gradient172" x1="799.6" y1="760" x2="880.4" y2="760" xlink:href="#linear-gradient"/>
        <linearGradient id="linear-gradient173" x1="879.6" y1="760" x2="960.4" y2="760" xlink:href="#linear-gradient"/>
        <linearGradient id="linear-gradient174" x1="959.6" y1="760" x2="1040.4" y2="760" xlink:href="#linear-gradient"/>
        <linearGradient id="linear-gradient175" x1="1039.6" y1="760" x2="1120.4" y2="760" xlink:href="#linear-gradient"/>
        <linearGradient id="linear-gradient176" x1="1119.6" y1="760" x2="1200.4" y2="760" xlink:href="#linear-gradient"/>
        <linearGradient id="linear-gradient177" x1="1199.6" y1="760" x2="1280.4" y2="760" xlink:href="#linear-gradient"/>
        <linearGradient id="linear-gradient178" x1="1279.6" y1="760" x2="1360.4" y2="760" xlink:href="#linear-gradient"/>
        <linearGradient id="linear-gradient179" x1="1359.6" y1="760" x2="1440.4" y2="760" xlink:href="#linear-gradient"/>
        <linearGradient id="linear-gradient180" y1="840" y2="840" xlink:href="#linear-gradient"/>
        <linearGradient id="linear-gradient181" x1="79.6" y1="840" x2="160.4" y2="840" xlink:href="#linear-gradient"/>
        <linearGradient id="linear-gradient182" x1="159.6" y1="840" x2="240.4" y2="840" xlink:href="#linear-gradient"/>
        <linearGradient id="linear-gradient183" x1="239.6" y1="840" x2="320.4" y2="840" xlink:href="#linear-gradient"/>
        <linearGradient id="linear-gradient184" x1="319.6" y1="840" x2="400.4" y2="840" xlink:href="#linear-gradient"/>
        <linearGradient id="linear-gradient185" x1="399.6" y1="840" x2="480.4" y2="840" xlink:href="#linear-gradient"/>
        <linearGradient id="linear-gradient186" x1="479.6" y1="840" x2="560.4" y2="840" xlink:href="#linear-gradient"/>
        <linearGradient id="linear-gradient187" x1="559.6" y1="840" x2="640.4" y2="840" xlink:href="#linear-gradient"/>
        <linearGradient id="linear-gradient188" x1="639.6" y1="840" x2="720.4" y2="840" xlink:href="#linear-gradient"/>
        <linearGradient id="linear-gradient189" x1="719.6" y1="840" x2="800.4" y2="840" xlink:href="#linear-gradient"/>
        <linearGradient id="linear-gradient190" x1="799.6" y1="840" x2="880.4" y2="840" xlink:href="#linear-gradient"/>
        <linearGradient id="linear-gradient191" x1="879.6" y1="840" x2="960.4" y2="840" xlink:href="#linear-gradient"/>
        <linearGradient id="linear-gradient192" x1="959.6" y1="840" x2="1040.4" y2="840" xlink:href="#linear-gradient"/>
        <linearGradient id="linear-gradient193" x1="1039.6" y1="840" x2="1120.4" y2="840" xlink:href="#linear-gradient"/>
        <linearGradient id="linear-gradient194" x1="1119.6" y1="840" x2="1200.4" y2="840" xlink:href="#linear-gradient"/>
        <linearGradient id="linear-gradient195" x1="1199.6" y1="840" x2="1280.4" y2="840" xlink:href="#linear-gradient"/>
        <linearGradient id="linear-gradient196" x1="1279.6" y1="840" x2="1360.4" y2="840" xlink:href="#linear-gradient"/>
        <linearGradient id="linear-gradient197" x1="1359.6" y1="840" x2="1440.4" y2="840" xlink:href="#linear-gradient"/>
    </defs>
    <line x2="80" y2="80" style="fill: none; stroke: url(#linear-gradient); stroke-miterlimit: 10;"/>
    <line x1="80" x2="160" y2="80" style="fill: none; stroke: url(#linear-gradient1); stroke-miterlimit: 10;"/>
    <line x1="160" x2="240" y2="80" style="fill: none; stroke: url(#linear-gradient2); stroke-miterlimit: 10;"/>
    <line x1="240" x2="320" y2="80" style="fill: none; stroke: url(#linear-gradient3); stroke-miterlimit: 10;"/>
    <line x1="320" x2="400" y2="80" style="fill: none; stroke: url(#linear-gradient4); stroke-miterlimit: 10;"/>
    <line x1="400" x2="480" y2="80" style="fill: none; stroke: url(#linear-gradient5); stroke-miterlimit: 10;"/>
    <line x1="480" x2="560" y2="80" style="fill: none; stroke: url(#linear-gradient6); stroke-miterlimit: 10;"/>
    <line x1="560" x2="640" y2="80" style="fill: none; stroke: url(#linear-gradient7); stroke-miterlimit: 10;"/>
    <line x1="640" x2="720" y2="80" style="fill: none; stroke: url(#linear-gradient8); stroke-miterlimit: 10;"/>
    <line x1="720" x2="800" y2="80" style="fill: none; stroke: url(#linear-gradient9); stroke-miterlimit: 10;"/>
    <line x1="800" x2="880" y2="80" style="fill: none; stroke: url(#linear-gradient10); stroke-miterlimit: 10;"/>
    <line x1="960" x2="880" y2="80" style="fill: none; stroke: url(#linear-gradient11); stroke-miterlimit: 10;"/>
    <line x1="1040" x2="960" y2="80" style="fill: none; stroke: url(#linear-gradient12); stroke-miterlimit: 10;"/>
    <line x1="1040" x2="1120" y2="80" style="fill: none; stroke: url(#linear-gradient13); stroke-miterlimit: 10;"/>
    <line x1="1120" x2="1200" y2="80" style="fill: none; stroke: url(#linear-gradient14); stroke-miterlimit: 10;"/>
    <line x1="1200" x2="1280" y2="80" style="fill: none; stroke: url(#linear-gradient15); stroke-miterlimit: 10;"/>
    <line x1="1280" x2="1360" y2="80" style="fill: none; stroke: url(#linear-gradient16); stroke-miterlimit: 10;"/>
    <line x1="1360" x2="1440" y2="80" style="fill: none; stroke: url(#linear-gradient17); stroke-miterlimit: 10;"/>
    <line y1="80" x2="80" y2="160" style="fill: none; stroke: url(#linear-gradient18); stroke-miterlimit: 10;"/>
    <line x1="80" y1="80" x2="160" y2="160" style="fill: none; stroke: url(#linear-gradient19); stroke-miterlimit: 10;"/>
    <line x1="240" y1="80" x2="160" y2="160" style="fill: none; stroke: url(#linear-gradient20); stroke-miterlimit: 10;"/>
    <line x1="320" y1="80" x2="240" y2="160" style="fill: none; stroke: url(#linear-gradient21); stroke-miterlimit: 10;"/>
    <line x1="320" y1="80" x2="400" y2="160" style="fill: none; stroke: url(#linear-gradient22); stroke-miterlimit: 10;"/>
    <line x1="400" y1="80" x2="480" y2="160" style="fill: none; stroke: url(#linear-gradient23); stroke-miterlimit: 10;"/>
    <line x1="560" y1="80" x2="480" y2="160" style="fill: none; stroke: url(#linear-gradient24); stroke-miterlimit: 10;"/>
    <line x1="640" y1="80" x2="560" y2="160" style="fill: none; stroke: url(#linear-gradient25); stroke-miterlimit: 10;"/>
    <line x1="640" y1="80" x2="720" y2="160" style="fill: none; stroke: url(#linear-gradient26); stroke-miterlimit: 10;"/>
    <line x1="720" y1="80" x2="800" y2="160" style="fill: none; stroke: url(#linear-gradient27); stroke-miterlimit: 10;"/>
    <line x1="800" y1="80" x2="880" y2="160" style="fill: none; stroke: url(#linear-gradient28); stroke-miterlimit: 10;"/>
    <line x1="960" y1="80" x2="880" y2="160" style="fill: none; stroke: url(#linear-gradient29); stroke-miterlimit: 10;"/>
    <line x1="960" y1="80" x2="1040" y2="160" style="fill: none; stroke: url(#linear-gradient30); stroke-miterlimit: 10;"/>
    <line x1="1040" y1="80" x2="1120" y2="160" style="fill: none; stroke: url(#linear-gradient31); stroke-miterlimit: 10;"/>
    <line x1="1200" y1="80" x2="1120" y2="160" style="fill: none; stroke: url(#linear-gradient32); stroke-miterlimit: 10;"/>
    <line x1="1200" y1="80" x2="1280" y2="160" style="fill: none; stroke: url(#linear-gradient33); stroke-miterlimit: 10;"/>
    <line x1="1280" y1="80" x2="1360" y2="160" style="fill: none; stroke: url(#linear-gradient34); stroke-miterlimit: 10;"/>
    <line x1="1360" y1="80" x2="1440" y2="160" style="fill: none; stroke: url(#linear-gradient35); stroke-miterlimit: 10;"/>
    <line x1="80" y1="160" y2="240" style="fill: none; stroke: url(#linear-gradient36); stroke-miterlimit: 10;"/>
    <line x1="80" y1="160" x2="160" y2="240" style="fill: none; stroke: url(#linear-gradient37); stroke-miterlimit: 10;"/>
    <line x1="240" y1="160" x2="160" y2="240" style="fill: none; stroke: url(#linear-gradient38); stroke-miterlimit: 10;"/>
    <line x1="320" y1="160" x2="240" y2="240" style="fill: none; stroke: url(#linear-gradient39); stroke-miterlimit: 10;"/>
    <line x1="320" y1="160" x2="400" y2="240" style="fill: none; stroke: url(#linear-gradient40); stroke-miterlimit: 10;"/>
    <line x1="400" y1="160" x2="480" y2="240" style="fill: none; stroke: url(#linear-gradient41); stroke-miterlimit: 10;"/>
    <line x1="560" y1="160" x2="480" y2="240" style="fill: none; stroke: url(#linear-gradient42); stroke-miterlimit: 10;"/>
    <line x1="560" y1="160" x2="640" y2="240" style="fill: none; stroke: url(#linear-gradient43); stroke-miterlimit: 10;"/>
    <line x1="640" y1="160" x2="720" y2="240" style="fill: none; stroke: url(#linear-gradient44); stroke-miterlimit: 10;"/>
    <line x1="720" y1="160" x2="800" y2="240" style="fill: none; stroke: url(#linear-gradient45); stroke-miterlimit: 10;"/>
    <line x1="880" y1="160" x2="800" y2="240" style="fill: none; stroke: url(#linear-gradient46); stroke-miterlimit: 10;"/>
    <line x1="960" y1="160" x2="880" y2="240" style="fill: none; stroke: url(#linear-gradient47); stroke-miterlimit: 10;"/>
    <line x1="960" y1="160" x2="1040" y2="240" style="fill: none; stroke: url(#linear-gradient48); stroke-miterlimit: 10;"/>
    <line x1="1040" y1="160" x2="1120" y2="240" style="fill: none; stroke: url(#linear-gradient49); stroke-miterlimit: 10;"/>
    <line x1="1120" y1="160" x2="1200" y2="240" style="fill: none; stroke: url(#linear-gradient50); stroke-miterlimit: 10;"/>
    <line x1="1280" y1="160" x2="1200" y2="240" style="fill: none; stroke: url(#linear-gradient51); stroke-miterlimit: 10;"/>
    <line x1="1280" y1="160" x2="1360" y2="240" style="fill: none; stroke: url(#linear-gradient52); stroke-miterlimit: 10;"/>
    <line x1="1360" y1="160" x2="1440" y2="240" style="fill: none; stroke: url(#linear-gradient53); stroke-miterlimit: 10;"/>
    <line x1="80" y1="240" y2="320" style="fill: none; stroke: url(#linear-gradient54); stroke-miterlimit: 10;"/>
    <line x1="160" y1="240" x2="80" y2="320" style="fill: none; stroke: url(#linear-gradient55); stroke-miterlimit: 10;"/>
    <line x1="160" y1="240" x2="240" y2="320" style="fill: none; stroke: url(#linear-gradient56); stroke-miterlimit: 10;"/>
    <line x1="320" y1="240" x2="240" y2="320" style="fill: none; stroke: url(#linear-gradient57); stroke-miterlimit: 10;"/>
    <line x1="400" y1="240" x2="320" y2="320" style="fill: none; stroke: url(#linear-gradient58); stroke-miterlimit: 10;"/>
    <line x1="400" y1="240" x2="480" y2="320" style="fill: none; stroke: url(#linear-gradient59); stroke-miterlimit: 10;"/>
    <line x1="480" y1="240" x2="560" y2="320" style="fill: none; stroke: url(#linear-gradient60); stroke-miterlimit: 10;"/>
    <line x1="560" y1="240" x2="640" y2="320" style="fill: none; stroke: url(#linear-gradient61); stroke-miterlimit: 10;"/>
    <line x1="640" y1="240" x2="720" y2="320" style="fill: none; stroke: url(#linear-gradient62); stroke-miterlimit: 10;"/>
    <line x1="720" y1="240" x2="800" y2="320" style="fill: none; stroke: url(#linear-gradient63); stroke-miterlimit: 10;"/>
    <line x1="880" y1="240" x2="800" y2="320" style="fill: none; stroke: url(#linear-gradient64); stroke-miterlimit: 10;"/>
    <line x1="880" y1="240" x2="960" y2="320" style="fill: none; stroke: url(#linear-gradient65); stroke-miterlimit: 10;"/>
    <line x1="960" y1="240" x2="1040" y2="320" style="fill: none; stroke: url(#linear-gradient66); stroke-miterlimit: 10;"/>
    <line x1="1040" y1="240" x2="1120" y2="320" style="fill: none; stroke: url(#linear-gradient67); stroke-miterlimit: 10;"/>
    <line x1="1120" y1="240" x2="1200" y2="320" style="fill: none; stroke: url(#linear-gradient68); stroke-miterlimit: 10;"/>
    <line x1="1200" y1="240" x2="1280" y2="320" style="fill: none; stroke: url(#linear-gradient69); stroke-miterlimit: 10;"/>
    <line x1="1280" y1="240" x2="1360" y2="320" style="fill: none; stroke: url(#linear-gradient70); stroke-miterlimit: 10;"/>
    <line x1="1360" y1="240" x2="1440" y2="320" style="fill: none; stroke: url(#linear-gradient71); stroke-miterlimit: 10;"/>
    <line y1="320" x2="80" y2="400" style="fill: none; stroke: url(#linear-gradient72); stroke-miterlimit: 10;"/>
    <line x1="80" y1="320" x2="160" y2="400" style="fill: none; stroke: url(#linear-gradient73); stroke-miterlimit: 10;"/>
    <line x1="240" y1="320" x2="160" y2="400" style="fill: none; stroke: url(#linear-gradient74); stroke-miterlimit: 10;"/>
    <line x1="240" y1="320" x2="320" y2="400" style="fill: none; stroke: url(#linear-gradient75); stroke-miterlimit: 10;"/>
    <line x1="320" y1="320" x2="400" y2="400" style="fill: none; stroke: url(#linear-gradient76); stroke-miterlimit: 10;"/>
    <line x1="400" y1="320" x2="480" y2="400" style="fill: none; stroke: url(#linear-gradient77); stroke-miterlimit: 10;"/>
    <line x1="480" y1="320" x2="560" y2="400" style="fill: none; stroke: url(#linear-gradient78); stroke-miterlimit: 10;"/>
    <line x1="560" y1="320" x2="640" y2="400" style="fill: none; stroke: url(#linear-gradient79); stroke-miterlimit: 10;"/>
    <line x1="640" y1="320" x2="720" y2="400" style="fill: none; stroke: url(#linear-gradient80); stroke-miterlimit: 10;"/>
    <line x1="720" y1="320" x2="800" y2="400" style="fill: none; stroke: url(#linear-gradient81); stroke-miterlimit: 10;"/>
    <line x1="800" y1="320" x2="880" y2="400" style="fill: none; stroke: url(#linear-gradient82); stroke-miterlimit: 10;"/>
    <line x1="880" y1="320" x2="960" y2="400" style="fill: none; stroke: url(#linear-gradient83); stroke-miterlimit: 10;"/>
    <line x1="1040" y1="320" x2="960" y2="400" style="fill: none; stroke: url(#linear-gradient84); stroke-miterlimit: 10;"/>
    <line x1="1120" y1="320" x2="1040" y2="400" style="fill: none; stroke: url(#linear-gradient85); stroke-miterlimit: 10;"/>
    <line x1="1200" y1="320" x2="1120" y2="400" style="fill: none; stroke: url(#linear-gradient86); stroke-miterlimit: 10;"/>
    <line x1="1280" y1="320" x2="1200" y2="400" style="fill: none; stroke: url(#linear-gradient87); stroke-miterlimit: 10;"/>
    <line x1="1360" y1="320" x2="1280" y2="400" style="fill: none; stroke: url(#linear-gradient88); stroke-miterlimit: 10;"/>
    <line x1="1440" y1="320" x2="1360" y2="400" style="fill: none; stroke: url(#linear-gradient89); stroke-miterlimit: 10;"/>
    <line x1="80" y1="400" y2="480" style="fill: none; stroke: url(#linear-gradient90); stroke-miterlimit: 10;"/>
    <line x1="80" y1="400" x2="160" y2="480" style="fill: none; stroke: url(#linear-gradient91); stroke-miterlimit: 10;"/>
    <line x1="240" y1="400" x2="160" y2="480" style="fill: none; stroke: url(#linear-gradient92); stroke-miterlimit: 10;"/>
    <line x1="320" y1="400" x2="240" y2="480" style="fill: none; stroke: url(#linear-gradient93); stroke-miterlimit: 10;"/>
    <line x1="320" y1="400" x2="400" y2="480" style="fill: none; stroke: url(#linear-gradient94); stroke-miterlimit: 10;"/>
    <line x1="400" y1="400" x2="480" y2="480" style="fill: none; stroke: url(#linear-gradient95); stroke-miterlimit: 10;"/>
    <line x1="560" y1="400" x2="480" y2="480" style="fill: none; stroke: url(#linear-gradient96); stroke-miterlimit: 10;"/>
    <line x1="560" y1="400" x2="640" y2="480" style="fill: none; stroke: url(#linear-gradient97); stroke-miterlimit: 10;"/>
    <line x1="720" y1="400" x2="640" y2="480" style="fill: none; stroke: url(#linear-gradient98); stroke-miterlimit: 10;"/>
    <line x1="720" y1="400" x2="800" y2="480" style="fill: none; stroke: url(#linear-gradient99); stroke-miterlimit: 10;"/>
    <line x1="800" y1="400" x2="880" y2="480" style="fill: none; stroke: url(#linear-gradient100); stroke-miterlimit: 10;"/>
    <line x1="960" y1="400" x2="880" y2="480" style="fill: none; stroke: url(#linear-gradient101); stroke-miterlimit: 10;"/>
    <line x1="960" y1="400" x2="1040" y2="480" style="fill: none; stroke: url(#linear-gradient102); stroke-miterlimit: 10;"/>
    <line x1="1040" y1="400" x2="1120" y2="480" style="fill: none; stroke: url(#linear-gradient103); stroke-miterlimit: 10;"/>
    <line x1="1120" y1="400" x2="1200" y2="480" style="fill: none; stroke: url(#linear-gradient104); stroke-miterlimit: 10;"/>
    <line x1="1200" y1="400" x2="1280" y2="480" style="fill: none; stroke: url(#linear-gradient105); stroke-miterlimit: 10;"/>
    <line x1="1280" y1="400" x2="1360" y2="480" style="fill: none; stroke: url(#linear-gradient106); stroke-miterlimit: 10;"/>
    <line x1="1360" y1="400" x2="1440" y2="480" style="fill: none; stroke: url(#linear-gradient107); stroke-miterlimit: 10;"/>
    <line y1="480" x2="80" y2="560" style="fill: none; stroke: url(#linear-gradient108); stroke-miterlimit: 10;"/>
    <line x1="80" y1="480" x2="160" y2="560" style="fill: none; stroke: url(#linear-gradient109); stroke-miterlimit: 10;"/>
    <line x1="160" y1="480" x2="240" y2="560" style="fill: none; stroke: url(#linear-gradient110); stroke-miterlimit: 10;"/>
    <line x1="240" y1="480" x2="320" y2="560" style="fill: none; stroke: url(#linear-gradient111); stroke-miterlimit: 10;"/>
    <line x1="320" y1="480" x2="400" y2="560" style="fill: none; stroke: url(#linear-gradient112); stroke-miterlimit: 10;"/>
    <line x1="480" y1="480" x2="400" y2="560" style="fill: none; stroke: url(#linear-gradient113); stroke-miterlimit: 10;"/>
    <line x1="480" y1="480" x2="560" y2="560" style="fill: none; stroke: url(#linear-gradient114); stroke-miterlimit: 10;"/>
    <line x1="560" y1="480" x2="640" y2="560" style="fill: none; stroke: url(#linear-gradient115); stroke-miterlimit: 10;"/>
    <line x1="720" y1="480" x2="640" y2="560" style="fill: none; stroke: url(#linear-gradient116); stroke-miterlimit: 10;"/>
    <line x1="720" y1="480" x2="800" y2="560" style="fill: none; stroke: url(#linear-gradient117); stroke-miterlimit: 10;"/>
    <line x1="880" y1="480" x2="800" y2="560" style="fill: none; stroke: url(#linear-gradient118); stroke-miterlimit: 10;"/>
    <line x1="880" y1="480" x2="960" y2="560" style="fill: none; stroke: url(#linear-gradient119); stroke-miterlimit: 10;"/>
    <line x1="1040" y1="480" x2="960" y2="560" style="fill: none; stroke: url(#linear-gradient120); stroke-miterlimit: 10;"/>
    <line x1="1120" y1="480" x2="1040" y2="560" style="fill: none; stroke: url(#linear-gradient121); stroke-miterlimit: 10;"/>
    <line x1="1120" y1="480" x2="1200" y2="560" style="fill: none; stroke: url(#linear-gradient122); stroke-miterlimit: 10;"/>
    <line x1="1200" y1="480" x2="1280" y2="560" style="fill: none; stroke: url(#linear-gradient123); stroke-miterlimit: 10;"/>
    <line x1="1360" y1="480" x2="1280" y2="560" style="fill: none; stroke: url(#linear-gradient124); stroke-miterlimit: 10;"/>
    <line x1="1360" y1="480" x2="1440" y2="560" style="fill: none; stroke: url(#linear-gradient125); stroke-miterlimit: 10;"/>
    <line y1="560" x2="80" y2="640" style="fill: none; stroke: url(#linear-gradient126); stroke-miterlimit: 10;"/>
    <line x1="80" y1="560" x2="160" y2="640" style="fill: none; stroke: url(#linear-gradient127); stroke-miterlimit: 10;"/>
    <line x1="160" y1="560" x2="240" y2="640" style="fill: none; stroke: url(#linear-gradient128); stroke-miterlimit: 10;"/>
    <line x1="320" y1="560" x2="240" y2="640" style="fill: none; stroke: url(#linear-gradient129); stroke-miterlimit: 10;"/>
    <line x1="400" y1="560" x2="320" y2="640" style="fill: none; stroke: url(#linear-gradient130); stroke-miterlimit: 10;"/>
    <line x1="400" y1="560" x2="480" y2="640" style="fill: none; stroke: url(#linear-gradient131); stroke-miterlimit: 10;"/>
    <line x1="560" y1="560" x2="480" y2="640" style="fill: none; stroke: url(#linear-gradient132); stroke-miterlimit: 10;"/>
    <line x1="560" y1="560" x2="640" y2="640" style="fill: none; stroke: url(#linear-gradient133); stroke-miterlimit: 10;"/>
    <line x1="720" y1="560" x2="640" y2="640" style="fill: none; stroke: url(#linear-gradient134); stroke-miterlimit: 10;"/>
    <line x1="720" y1="560" x2="800" y2="640" style="fill: none; stroke: url(#linear-gradient135); stroke-miterlimit: 10;"/>
    <line x1="800" y1="560" x2="880" y2="640" style="fill: none; stroke: url(#linear-gradient136); stroke-miterlimit: 10;"/>
    <line x1="960" y1="560" x2="880" y2="640" style="fill: none; stroke: url(#linear-gradient137); stroke-miterlimit: 10;"/>
    <line x1="1040" y1="560" x2="960" y2="640" style="fill: none; stroke: url(#linear-gradient138); stroke-miterlimit: 10;"/>
    <line x1="1040" y1="560" x2="1120" y2="640" style="fill: none; stroke: url(#linear-gradient139); stroke-miterlimit: 10;"/>
    <line x1="1120" y1="560" x2="1200" y2="640" style="fill: none; stroke: url(#linear-gradient140); stroke-miterlimit: 10;"/>
    <line x1="1200" y1="560" x2="1280" y2="640" style="fill: none; stroke: url(#linear-gradient141); stroke-miterlimit: 10;"/>
    <line x1="1280" y1="560" x2="1360" y2="640" style="fill: none; stroke: url(#linear-gradient142); stroke-miterlimit: 10;"/>
    <line x1="1360" y1="560" x2="1440" y2="640" style="fill: none; stroke: url(#linear-gradient143); stroke-miterlimit: 10;"/>
    <line y1="640" x2="80" y2="720" style="fill: none; stroke: url(#linear-gradient144); stroke-miterlimit: 10;"/>
    <line x1="80" y1="640" x2="160" y2="720" style="fill: none; stroke: url(#linear-gradient145); stroke-miterlimit: 10;"/>
    <line x1="240" y1="640" x2="160" y2="720" style="fill: none; stroke: url(#linear-gradient146); stroke-miterlimit: 10;"/>
    <line x1="320" y1="640" x2="240" y2="720" style="fill: none; stroke: url(#linear-gradient147); stroke-miterlimit: 10;"/>
    <line x1="400" y1="640" x2="320" y2="720" style="fill: none; stroke: url(#linear-gradient148); stroke-miterlimit: 10;"/>
    <line x1="400" y1="640" x2="480" y2="720" style="fill: none; stroke: url(#linear-gradient149); stroke-miterlimit: 10;"/>
    <line x1="480" y1="640" x2="560" y2="720" style="fill: none; stroke: url(#linear-gradient150); stroke-miterlimit: 10;"/>
    <line x1="560" y1="640" x2="640" y2="720" style="fill: none; stroke: url(#linear-gradient151); stroke-miterlimit: 10;"/>
    <line x1="640" y1="640" x2="720" y2="720" style="fill: none; stroke: url(#linear-gradient152); stroke-miterlimit: 10;"/>
    <line x1="720" y1="640" x2="800" y2="720" style="fill: none; stroke: url(#linear-gradient153); stroke-miterlimit: 10;"/>
    <line x1="800" y1="640" x2="880" y2="720" style="fill: none; stroke: url(#linear-gradient154); stroke-miterlimit: 10;"/>
    <line x1="960" y1="640" x2="880" y2="720" style="fill: none; stroke: url(#linear-gradient155); stroke-miterlimit: 10;"/>
    <line x1="960" y1="640" x2="1040" y2="720" style="fill: none; stroke: url(#linear-gradient156); stroke-miterlimit: 10;"/>
    <line x1="1040" y1="640" x2="1120" y2="720" style="fill: none; stroke: url(#linear-gradient157); stroke-miterlimit: 10;"/>
    <line x1="1120" y1="640" x2="1200" y2="720" style="fill: none; stroke: url(#linear-gradient158); stroke-miterlimit: 10;"/>
    <line x1="1200" y1="640" x2="1280" y2="720" style="fill: none; stroke: url(#linear-gradient159); stroke-miterlimit: 10;"/>
    <line x1="1360" y1="640" x2="1280" y2="720" style="fill: none; stroke: url(#linear-gradient160); stroke-miterlimit: 10;"/>
    <line x1="1360" y1="640" x2="1440" y2="720" style="fill: none; stroke: url(#linear-gradient161); stroke-miterlimit: 10;"/>
    <line y1="720" x2="80" y2="800" style="fill: none; stroke: url(#linear-gradient162); stroke-miterlimit: 10;"/>
    <line x1="80" y1="720" x2="160" y2="800" style="fill: none; stroke: url(#linear-gradient163); stroke-miterlimit: 10;"/>
    <line x1="240" y1="720" x2="160" y2="800" style="fill: none; stroke: url(#linear-gradient164); stroke-miterlimit: 10;"/>
    <line x1="320" y1="720" x2="240" y2="800" style="fill: none; stroke: url(#linear-gradient165); stroke-miterlimit: 10;"/>
    <line x1="320" y1="720" x2="400" y2="800" style="fill: none; stroke: url(#linear-gradient166); stroke-miterlimit: 10;"/>
    <line x1="400" y1="720" x2="480" y2="800" style="fill: none; stroke: url(#linear-gradient167); stroke-miterlimit: 10;"/>
    <line x1="480" y1="720" x2="560" y2="800" style="fill: none; stroke: url(#linear-gradient168); stroke-miterlimit: 10;"/>
    <line x1="560" y1="720" x2="640" y2="800" style="fill: none; stroke: url(#linear-gradient169); stroke-miterlimit: 10;"/>
    <line x1="640" y1="720" x2="720" y2="800" style="fill: none; stroke: url(#linear-gradient170); stroke-miterlimit: 10;"/>
    <line x1="800" y1="720" x2="720" y2="800" style="fill: none; stroke: url(#linear-gradient171); stroke-miterlimit: 10;"/>
    <line x1="800" y1="720" x2="880" y2="800" style="fill: none; stroke: url(#linear-gradient172); stroke-miterlimit: 10;"/>
    <line x1="960" y1="720" x2="880" y2="800" style="fill: none; stroke: url(#linear-gradient173); stroke-miterlimit: 10;"/>
    <line x1="1040" y1="720" x2="960" y2="800" style="fill: none; stroke: url(#linear-gradient174); stroke-miterlimit: 10;"/>
    <line x1="1120" y1="720" x2="1040" y2="800" style="fill: none; stroke: url(#linear-gradient175); stroke-miterlimit: 10;"/>
    <line x1="1120" y1="720" x2="1200" y2="800" style="fill: none; stroke: url(#linear-gradient176); stroke-miterlimit: 10;"/>
    <line x1="1200" y1="720" x2="1280" y2="800" style="fill: none; stroke: url(#linear-gradient177); stroke-miterlimit: 10;"/>
    <line x1="1280" y1="720" x2="1360" y2="800" style="fill: none; stroke: url(#linear-gradient178); stroke-miterlimit: 10;"/>
    <line x1="1360" y1="720" x2="1440" y2="800" style="fill: none; stroke: url(#linear-gradient179); stroke-miterlimit: 10;"/>
    <line y1="800" x2="80" y2="880" style="fill: none; stroke: url(#linear-gradient180); stroke-miterlimit: 10;"/>
    <line x1="160" y1="800" x2="80" y2="880" style="fill: none; stroke: url(#linear-gradient181); stroke-miterlimit: 10;"/>
    <line x1="160" y1="800" x2="240" y2="880" style="fill: none; stroke: url(#linear-gradient182); stroke-miterlimit: 10;"/>
    <line x1="240" y1="800" x2="320" y2="880" style="fill: none; stroke: url(#linear-gradient183); stroke-miterlimit: 10;"/>
    <line x1="320" y1="800" x2="400" y2="880" style="fill: none; stroke: url(#linear-gradient184); stroke-miterlimit: 10;"/>
    <line x1="480" y1="800" x2="400" y2="880" style="fill: none; stroke: url(#linear-gradient185); stroke-miterlimit: 10;"/>
    <line x1="480" y1="800" x2="560" y2="880" style="fill: none; stroke: url(#linear-gradient186); stroke-miterlimit: 10;"/>
    <line x1="640" y1="800" x2="560" y2="880" style="fill: none; stroke: url(#linear-gradient187); stroke-miterlimit: 10;"/>
    <line x1="720" y1="800" x2="640" y2="880" style="fill: none; stroke: url(#linear-gradient188); stroke-miterlimit: 10;"/>
    <line x1="720" y1="800" x2="800" y2="880" style="fill: none; stroke: url(#linear-gradient189); stroke-miterlimit: 10;"/>
    <line x1="800" y1="800" x2="880" y2="880" style="fill: none; stroke: url(#linear-gradient190); stroke-miterlimit: 10;"/>
    <line x1="880" y1="800" x2="960" y2="880" style="fill: none; stroke: url(#linear-gradient191); stroke-miterlimit: 10;"/>
    <line x1="1040" y1="800" x2="960" y2="880" style="fill: none; stroke: url(#linear-gradient192); stroke-miterlimit: 10;"/>
    <line x1="1040" y1="800" x2="1120" y2="880" style="fill: none; stroke: url(#linear-gradient193); stroke-miterlimit: 10;"/>
    <line x1="1120" y1="800" x2="1200" y2="880" style="fill: none; stroke: url(#linear-gradient194); stroke-miterlimit: 10;"/>
    <line x1="1200" y1="800" x2="1280" y2="880" style="fill: none; stroke: url(#linear-gradient195); stroke-miterlimit: 10;"/>
    <line x1="1360" y1="800" x2="1280" y2="880" style="fill: none; stroke: url(#linear-gradient196); stroke-miterlimit: 10;"/>
    <line x1="1360" y1="800" x2="1440" y2="880" style="fill: none; stroke: url(#linear-gradient197); stroke-miterlimit: 10;"/>
</svg>
