<svg width="191" height="56" viewBox="0 0 191 56" fill="none" xmlns="http://www.w3.org/2000/svg">
<g clip-path="url(#clip0_921_328)">
<path d="M7.375 25.1H0V0.799988H7.375V25.1Z" fill="#505B93"/>
<path d="M24.175 25.1H16.8V0.799988H24.175V25.1Z" fill="#00AAA6"/>
<path d="M24.175 25.1H7.375V0.799988L24.175 25.1Z" fill="#272D48"/>
<path d="M25.6504 14.125C25.6504 12.575 25.9754 11.175 26.6754 9.95C27.3504 8.7 28.3504 7.75 29.6504 7.05C30.9504 6.35 32.5004 6 34.3004 6C34.5754 6 35.0004 6.025 35.6004 6.075C36.8254 6.175 37.8754 6.4 38.7254 6.775C39.5754 7.15 40.3254 7.625 41.0004 8.25V6.45H47.4504V25.125H41.0004V23.325C40.3754 23.975 39.6004 24.475 38.6504 24.85C37.7004 25.225 36.6754 25.45 35.6254 25.5C35.4004 25.525 35.0504 25.525 34.6004 25.525C32.8004 25.525 31.2504 25.175 29.9004 24.5C28.5504 23.825 27.5254 22.85 26.8004 21.625C26.0754 20.4 25.7254 19 25.7254 17.475V14.125H25.6504ZM32.1004 16.475C32.1004 18.775 33.5754 19.925 36.5254 19.925C39.4754 19.925 40.9504 18.775 40.9504 16.475V15.075C40.9504 12.75 39.4754 11.575 36.5254 11.575C33.5754 11.575 32.1004 12.75 32.1004 15.075V16.475ZM52.0754 25.1V12.25H48.8754V6.425L52.0754 6.375V0.8H58.5504L58.5754 6.4H63.1504V12.25H58.5504V25.1M71.8254 25.1H65.3504V6.4H71.8254V25.1ZM87.7504 25.1H81.2504L73.5004 6.4H80.0004L84.5004 17.5L89.0004 6.375H95.4754L87.7504 25.1ZM113.725 22.4C112.7 23.45 111.525 24.225 110.2 24.725C108.875 25.225 107.25 25.45 105.325 25.45C103.325 25.45 101.55 25.1 100 24.4C98.4504 23.7 97.2254 22.725 96.3254 21.5C95.4504 20.25 95.0004 18.85 95.0004 17.25V14.15C95.0004 12.525 95.4254 11.1 96.3004 9.875C97.1504 8.65 98.3504 7.7 99.8504 7.05C101.35 6.375 103.025 6.05 104.85 6.05C106.85 6.05 108.6 6.425 110.15 7.125C111.675 7.85 112.875 8.875 113.75 10.225C114.6 11.575 115.05 13.125 115.05 14.9C115.05 15.325 115 15.95 114.875 16.825L101.325 16.85V17.375C101.325 18.4 101.7 19.2 102.425 19.725C103.15 20.275 104.15 20.525 105.375 20.525C106.525 20.525 107.5 20.375 108.325 20.075C109.125 19.775 109.925 19.2 110.675 18.375L113.725 22.4ZM108.6 13.35C108.6 12.575 108.25 11.975 107.55 11.575C106.85 11.175 105.95 10.975 104.85 10.975C103.75 10.975 102.875 11.175 102.225 11.575C101.575 11.975 101.275 12.575 101.275 13.35H108.6ZM116.5 25.1V0.8H130.5C132.975 0.8 134.95 1.275 136.425 2.2C137.9 3.125 138.925 4.25 139.475 5.525C140.05 6.8 140.325 8.05 140.325 9.275C140.325 10.475 140.025 11.7 139.45 12.95C138.875 14.2 137.85 15.25 136.4 16.15C134.95 17.05 132.975 17.5 130.475 17.5H122.925V25.125H116.5V25.1ZM130.5 11.65C132.75 11.65 133.9 10.825 133.9 9.175C133.9 7.45 132.75 6.6 130.475 6.6H122.95V11.65H130.5ZM148.25 25.1H141.8V0.8H148.25V10.3H159.225V0.8H165.675V25.1H159.225V15.475H148.25V25.1ZM167.15 25.1V0.8H181.15C183.625 0.8 185.6 1.275 187.075 2.2C188.55 3.125 189.575 4.25 190.125 5.525C190.7 6.8 190.975 8.05 190.975 9.275C190.975 10.475 190.675 11.7 190.1 12.95C189.525 14.2 188.5 15.25 187.05 16.15C185.6 17.05 183.625 17.5 181.125 17.5H173.575V25.125H167.15V25.1ZM181.15 11.65C183.4 11.65 184.55 10.825 184.55 9.175C184.55 7.45 183.4 6.6 181.125 6.6H173.6V11.65H181.15ZM72.7754 5.55H64.4004V0.5H72.7754V5.55Z" fill="#272D48"/>
</g>
<g clip-path="url(#clip1_921_328)">
<rect x="89.2139" y="35.5" width="20" height="20" rx="10" fill="black"/>
<g clip-path="url(#clip2_921_328)">
<path fill-rule="evenodd" clip-rule="evenodd" d="M93.2216 40.6648C92.7199 40.7727 92.325 41.1538 92.1903 41.66L92.1564 41.7875V44.6225V47.4575L92.1902 47.5845C92.295 47.9777 92.5602 48.2994 92.9214 48.4714C93.2054 48.6067 93.0388 48.5957 94.8976 48.6011L96.5439 48.6059V49.0094V49.4129L95.8501 49.4177L95.1564 49.4225L95.0715 49.4622C94.9714 49.5092 94.8793 49.5992 94.8311 49.6971C94.7806 49.7995 94.7813 49.9931 94.8325 50.0932C94.8765 50.1793 94.9706 50.2769 95.0514 50.3203C95.1105 50.352 95.1256 50.3526 96.0564 50.36C96.5761 50.3641 97.4334 50.3641 97.9614 50.36C98.9105 50.3526 98.9221 50.3521 98.9821 50.3199C99.1357 50.2377 99.2324 50.0875 99.2411 49.9175C99.2513 49.7189 99.1474 49.5495 98.9622 49.4627L98.8764 49.4225L98.1826 49.4177L97.4889 49.4129V49.0089V48.605L99.0751 48.6049C100.105 48.6048 100.695 48.5993 100.758 48.5891C101.065 48.5392 101.386 48.3498 101.583 48.1023C101.693 47.9635 101.798 47.7548 101.843 47.585L101.876 47.4575V44.6225V41.7875L101.843 41.66C101.715 41.1781 101.379 40.8331 100.891 40.6816L100.781 40.6475L97.0539 40.6449C93.7877 40.6426 93.3134 40.645 93.2216 40.6648ZM93.3583 41.6069C93.2732 41.6373 93.2007 41.7023 93.1479 41.7954L93.1014 41.8775V44.615V47.3525L93.1332 47.4213C93.1716 47.5043 93.2483 47.584 93.3278 47.6234C93.3852 47.6519 93.4598 47.6526 96.9919 47.6563C99.3746 47.6589 100.616 47.655 100.654 47.6451C100.737 47.6225 100.836 47.5389 100.887 47.4482L100.931 47.3675L100.936 44.6675C100.939 42.7576 100.936 41.9455 100.924 41.8925C100.903 41.7951 100.823 41.6877 100.733 41.6347L100.661 41.5925L97.0389 41.5893C93.9852 41.5867 93.4073 41.5894 93.3583 41.6069ZM103.024 41.9737C102.908 42.0098 102.79 42.1179 102.737 42.2375C102.69 42.342 102.69 42.508 102.737 42.6125C102.777 42.7016 102.856 42.7873 102.949 42.8425L103.016 42.8825L104.014 42.89C104.988 42.8973 105.013 42.8982 105.08 42.9291C105.174 42.9729 105.246 43.0394 105.289 43.1248C105.324 43.1923 105.327 43.2159 105.331 43.456L105.336 43.7144L104.184 43.7185L103.031 43.7225L102.964 43.7575C102.868 43.8071 102.776 43.9017 102.737 43.991C102.687 44.1032 102.689 44.2641 102.741 44.375C102.79 44.4796 102.874 44.5633 102.979 44.6133L103.061 44.6525L104.198 44.6568L105.334 44.6612V45.0656V45.47H104.209C103.116 45.47 103.083 45.4708 103.003 45.5005C102.721 45.6062 102.611 45.9469 102.778 46.1993C102.831 46.2794 102.9 46.3348 103.001 46.3805C103.057 46.4056 103.142 46.4078 104.198 46.4118L105.334 46.4161L105.33 47.7618L105.326 49.1075L105.284 49.1931C105.26 49.2418 105.217 49.2985 105.184 49.3246C105.064 49.4201 105.15 49.415 103.666 49.4151C102.893 49.4151 102.274 49.4212 102.225 49.4292C102.06 49.4563 101.943 49.5415 101.87 49.6877C101.809 49.8102 101.805 49.9661 101.86 50.0849C101.906 50.1838 102 50.2776 102.099 50.3236L102.176 50.3597L103.628 50.3598C104.897 50.36 105.095 50.357 105.196 50.3362C105.513 50.2707 105.806 50.0882 105.997 49.8358C106.095 49.7059 106.196 49.4978 106.238 49.34L106.271 49.2125V46.16V43.1075L106.238 42.98C106.2 42.84 106.112 42.6443 106.036 42.5336C105.875 42.2982 105.617 42.1095 105.319 42.0101L105.191 41.9675L104.126 41.9647C103.541 41.9632 103.044 41.9673 103.024 41.9737ZM103.638 47.2524C103.23 47.3589 103.02 47.8371 103.211 48.2247C103.276 48.357 103.408 48.4847 103.549 48.5511C103.641 48.595 103.656 48.5975 103.827 48.5975C104.006 48.5975 104.009 48.5968 104.122 48.5413C104.256 48.4747 104.394 48.3378 104.454 48.2105C104.579 47.9465 104.515 47.6146 104.3 47.4155C104.113 47.2428 103.888 47.1872 103.638 47.2524Z" fill="white"/>
</g>
<path d="M184.686 43.266C184.957 42.9113 185.325 42.6126 185.792 42.37C186.259 42.1273 186.786 42.006 187.374 42.006C188.046 42.006 188.657 42.174 189.208 42.51C189.768 42.8366 190.207 43.2986 190.524 43.896C190.841 44.4933 191 45.1793 191 45.954C191 46.7286 190.841 47.424 190.524 48.04C190.207 48.6466 189.768 49.1226 189.208 49.468C188.657 49.804 188.046 49.972 187.374 49.972C186.786 49.972 186.263 49.8553 185.806 49.622C185.349 49.3793 184.975 49.0806 184.686 48.726V53.514H183.09V42.132H184.686V43.266ZM189.376 45.954C189.376 45.422 189.264 44.9646 189.04 44.582C188.825 44.19 188.536 43.896 188.172 43.7C187.817 43.4946 187.435 43.392 187.024 43.392C186.623 43.392 186.24 43.4946 185.876 43.7C185.521 43.9053 185.232 44.204 185.008 44.596C184.793 44.988 184.686 45.45 184.686 45.982C184.686 46.514 184.793 46.9806 185.008 47.382C185.232 47.774 185.521 48.0726 185.876 48.278C186.24 48.4833 186.623 48.586 187.024 48.586C187.435 48.586 187.817 48.4833 188.172 48.278C188.536 48.0633 188.825 47.7553 189.04 47.354C189.264 46.9526 189.376 46.486 189.376 45.954Z" fill="black"/>
<path d="M177.928 49.972C177.2 49.972 176.542 49.8086 175.954 49.482C175.366 49.146 174.904 48.6793 174.568 48.082C174.232 47.4753 174.064 46.7753 174.064 45.982C174.064 45.198 174.237 44.5026 174.582 43.896C174.928 43.2893 175.399 42.8226 175.996 42.496C176.594 42.1693 177.261 42.006 177.998 42.006C178.736 42.006 179.403 42.1693 180 42.496C180.598 42.8226 181.069 43.2893 181.414 43.896C181.76 44.5026 181.932 45.198 181.932 45.982C181.932 46.766 181.755 47.4613 181.4 48.068C181.046 48.6746 180.56 49.146 179.944 49.482C179.338 49.8086 178.666 49.972 177.928 49.972ZM177.928 48.586C178.339 48.586 178.722 48.488 179.076 48.292C179.44 48.096 179.734 47.802 179.958 47.41C180.182 47.018 180.294 46.542 180.294 45.982C180.294 45.422 180.187 44.9506 179.972 44.568C179.758 44.176 179.473 43.882 179.118 43.686C178.764 43.49 178.381 43.392 177.97 43.392C177.56 43.392 177.177 43.49 176.822 43.686C176.477 43.882 176.202 44.176 175.996 44.568C175.791 44.9506 175.688 45.422 175.688 45.982C175.688 46.8126 175.898 47.4566 176.318 47.914C176.748 48.362 177.284 48.586 177.928 48.586Z" fill="black"/>
<path d="M171.655 43.434V47.704C171.655 47.9933 171.721 48.2033 171.851 48.334C171.991 48.4553 172.225 48.516 172.551 48.516H173.531V49.846H172.271C171.553 49.846 171.002 49.678 170.619 49.342C170.237 49.006 170.045 48.46 170.045 47.704V43.434H169.135V42.132H170.045V40.214H171.655V42.132H173.531V43.434H171.655Z" fill="black"/>
<path d="M165.513 45.996L169.069 49.846H166.913L164.057 46.528V49.846H162.461V39.486H164.057V45.506L166.857 42.132H169.069L165.513 45.996Z" fill="black"/>
<path d="M158.203 49.972C157.596 49.972 157.05 49.8646 156.565 49.65C156.089 49.426 155.711 49.1273 155.431 48.754C155.151 48.3713 155.001 47.9466 154.983 47.48H156.635C156.663 47.8066 156.817 48.082 157.097 48.306C157.386 48.5206 157.745 48.628 158.175 48.628C158.623 48.628 158.968 48.544 159.211 48.376C159.463 48.1986 159.589 47.9746 159.589 47.704C159.589 47.4146 159.449 47.2 159.169 47.06C158.898 46.92 158.464 46.766 157.867 46.598C157.288 46.4393 156.817 46.2853 156.453 46.136C156.089 45.9866 155.771 45.758 155.501 45.45C155.239 45.142 155.109 44.736 155.109 44.232C155.109 43.8213 155.23 43.448 155.473 43.112C155.715 42.7666 156.061 42.496 156.509 42.3C156.966 42.104 157.489 42.006 158.077 42.006C158.954 42.006 159.659 42.23 160.191 42.678C160.732 43.1166 161.021 43.7186 161.059 44.484H159.463C159.435 44.1386 159.295 43.8633 159.043 43.658C158.791 43.4526 158.45 43.35 158.021 43.35C157.601 43.35 157.279 43.4293 157.055 43.588C156.831 43.7466 156.719 43.9566 156.719 44.218C156.719 44.4233 156.793 44.596 156.943 44.736C157.092 44.876 157.274 44.988 157.489 45.072C157.703 45.1466 158.021 45.2446 158.441 45.366C159.001 45.5153 159.458 45.6693 159.813 45.828C160.177 45.9773 160.489 46.2013 160.751 46.5C161.012 46.7986 161.147 47.1953 161.157 47.69C161.157 48.1286 161.035 48.5206 160.793 48.866C160.55 49.2113 160.205 49.482 159.757 49.678C159.318 49.874 158.8 49.972 158.203 49.972Z" fill="black"/>
<path d="M154.252 45.8C154.252 46.0893 154.233 46.3506 154.196 46.584H148.302C148.349 47.2 148.577 47.6946 148.988 48.068C149.399 48.4413 149.903 48.628 150.5 48.628C151.359 48.628 151.965 48.2686 152.32 47.55H154.042C153.809 48.2593 153.384 48.8426 152.768 49.3C152.161 49.748 151.405 49.972 150.5 49.972C149.763 49.972 149.1 49.8086 148.512 49.482C147.933 49.146 147.476 48.6793 147.14 48.082C146.813 47.4753 146.65 46.7753 146.65 45.982C146.65 45.1886 146.809 44.4933 147.126 43.896C147.453 43.2893 147.905 42.8226 148.484 42.496C149.072 42.1693 149.744 42.006 150.5 42.006C151.228 42.006 151.877 42.1646 152.446 42.482C153.015 42.7993 153.459 43.2473 153.776 43.826C154.093 44.3953 154.252 45.0533 154.252 45.8ZM152.586 45.296C152.577 44.708 152.367 44.2366 151.956 43.882C151.545 43.5273 151.037 43.35 150.43 43.35C149.879 43.35 149.408 43.5273 149.016 43.882C148.624 44.2273 148.391 44.6986 148.316 45.296H152.586Z" fill="black"/>
<path d="M140.854 40.116C141.89 40.116 142.796 40.3167 143.57 40.718C144.354 41.11 144.956 41.6794 145.376 42.426C145.806 43.1634 146.02 44.0267 146.02 45.016C146.02 46.0054 145.806 46.864 145.376 47.592C144.956 48.32 144.354 48.88 143.57 49.272C142.796 49.6547 141.89 49.846 140.854 49.846H137.676V40.116H140.854ZM140.854 48.544C141.993 48.544 142.866 48.236 143.472 47.62C144.079 47.004 144.382 46.136 144.382 45.016C144.382 43.8867 144.079 43.0047 143.472 42.37C142.866 41.7354 141.993 41.418 140.854 41.418H139.272V48.544H140.854Z" fill="black"/>
<path d="M131.103 43.252C131.336 42.86 131.644 42.5566 132.027 42.342C132.419 42.118 132.881 42.006 133.413 42.006V43.658H133.007C132.381 43.658 131.905 43.8166 131.579 44.134C131.261 44.4513 131.103 45.002 131.103 45.786V49.846H129.507V42.132H131.103V43.252Z" fill="black"/>
<path d="M124.345 49.972C123.617 49.972 122.959 49.8086 122.371 49.482C121.783 49.146 121.321 48.6793 120.985 48.082C120.649 47.4753 120.481 46.7753 120.481 45.982C120.481 45.198 120.654 44.5026 120.999 43.896C121.344 43.2893 121.816 42.8226 122.413 42.496C123.01 42.1693 123.678 42.006 124.415 42.006C125.152 42.006 125.82 42.1693 126.417 42.496C127.014 42.8226 127.486 43.2893 127.831 43.896C128.176 44.5026 128.349 45.198 128.349 45.982C128.349 46.766 128.172 47.4613 127.817 48.068C127.462 48.6746 126.977 49.146 126.361 49.482C125.754 49.8086 125.082 49.972 124.345 49.972ZM124.345 48.586C124.756 48.586 125.138 48.488 125.493 48.292C125.857 48.096 126.151 47.802 126.375 47.41C126.599 47.018 126.711 46.542 126.711 45.982C126.711 45.422 126.604 44.9506 126.389 44.568C126.174 44.176 125.89 43.882 125.535 43.686C125.18 43.49 124.798 43.392 124.387 43.392C123.976 43.392 123.594 43.49 123.239 43.686C122.894 43.882 122.618 44.176 122.413 44.568C122.208 44.9506 122.105 45.422 122.105 45.982C122.105 46.8126 122.315 47.4566 122.735 47.914C123.164 48.362 123.701 48.586 124.345 48.586Z" fill="black"/>
<path d="M119.94 40.116V41.418H115.81V44.288H119.03V45.59H115.81V49.846H114.214V40.116H119.94Z" fill="black"/>
</g>
<defs>
<clipPath id="clip0_921_328">
<rect width="191" height="25" fill="white" transform="translate(0 0.5)"/>
</clipPath>
<clipPath id="clip1_921_328">
<rect x="89.2139" y="35.5" width="101.786" height="20" rx="10" fill="white"/>
</clipPath>
<clipPath id="clip2_921_328">
<rect width="15" height="15" fill="white" transform="translate(91.7139 38)"/>
</clipPath>
</defs>
</svg>
