<?xml version="1.0" encoding="UTF-8" standalone="no"?>
<!-- Generator: Adobe Illustrator 22.0.1, SVG Export Plug-In . SVG Version: 6.00 Build 0)  -->

<svg
   version="1.1"
   id="Layer_1"
   x="0px"
   y="0px"
   viewBox="0 0 1033.9161 174.96765"
   xml:space="preserve"
   width="100%"
   height="100%"
   xmlns="http://www.w3.org/2000/svg"
   xmlns:svg="http://www.w3.org/2000/svg"><defs
   id="defs3" />
<style
   type="text/css"
   id="style1">
	.st0{fill:#FFC107;}
</style>

<style
   type="text/css"
   id="style1-2">
	.st0{fill:#FFC107;}
</style><g
   id="g3"
   transform="matrix(0.88888723,0,0,0.88888723,-6.8444317,-34.990592)">

	<path
   class="st0"
   d="m 104.9,161.2 c 0,10.2 -8.3,18.7 -18.8,18.6 -10.2,-0.1 -18.5,-8.4 -18.5,-18.8 0.1,-10.1 8.3,-18.5 18.7,-18.4 10.3,0 18.6,8.4 18.6,18.6 z"
   id="path2" />
	<path
   class="st0"
   d="m 230.65978,141.7376 c 0.3,6 -5.1,11.5 -11.6,11.4 -6,-0.1 -11.5,-5.3 -11.2,-11.9 0.2,-5.7 5.2,-11.2 11.9,-11 6.1,0.3 11.2,5.6 10.9,11.5 z"
   id="path3" />
<path
   class="st0"
   d="m 7.7,220.92243 0,-13.57665 c 0,-8.58551 9.368577,-11.95179 14.493693,-18.28384 2.337739,-2.88826 1.982881,-6.8757 -1.092187,-9.18475 C 15.175741,175.42757 7.7,172.9904 7.7,165.3078 V 150.69682 A 27.959826,27.959826 115.09914 0 1 17.761822,129.21629 L 110.79821,51.696542 c 6.87544,-5.728751 19.55062,-12.212748 28.4553,-12.323028 24.42958,-0.302549 71.92995,6.813276 109.50406,50.111914 2.73065,3.146674 4.80516,9.190432 4.80112,13.357112 l -0.003,2.77095 c 0,0.8284 -0.45453,43.72427 -0.61061,72.56376 -0.0467,8.62813 -6.92919,16.89896 -15.41278,18.47324 L 25.76909,235.94696 A 15.281023,15.281023 39.743667 0 1 7.7,220.92243 Z m 226.57403,-115.63101 -46.53548,9.5079 c -0.27215,0.0556 -0.49228,0.32588 -0.49727,0.60361 -0.39423,21.93174 -26.56267,26.33795 -33.86733,5.56983 -0.0722,-0.20536 -0.3021,-0.34287 -0.51665,-0.306 L 25.635438,142.52907 a 6.8020854,6.8020854 130.12465 0 0 -5.650074,6.70382 v 13.2573 c 0,3.59527 3.055544,6.30566 6.363286,7.64937 11.194719,4.54766 14.405584,21.43761 1.251495,28.35978 -4.010196,2.11031 -7.814781,6.19013 -7.814781,10.74133 v 6.99438 a 6.8575327,6.8575327 39.621658 0 0 8.137413,6.73704 L 232.32504,184.1404 a 9.7828104,9.7828104 129.61244 0 0 7.95696,-9.61406 l -0.0207,-64.34887 a 4.988632,4.988632 39.217045 0 0 -5.98726,-4.88605 z M 133.4,69.4 c -0.4,0 -0.9,0.1 -1.3,0.1 -2.5,0.1 -4.9,0.6 -7.1,1.6 -2.3,1 -4.3,2.3 -5.8,4.4 -1.3,1.8 -2.1,3.7 -2,5.9 0.2,2.8 1.5,5 3.6,6.8 3.7,3.2 8.2,4.3 13,4.4 1.6,0 3.3,-0.3 4.9,-0.6 3.5,-0.8 6.6,-2.3 8.9,-5.1 2.5,-3.1 3,-6.8 1,-10.2 -0.9,-1.6 -2.3,-2.9 -3.8,-3.9 -3.5,-2.4 -7.3,-3.3 -11.4,-3.4 z"
   id="path4" /></g><path
            fill="currentColor"
   style="font-weight:500;font-size:122.667px;line-height:0;font-family:Inter;-inkscape-font-specification:'Inter Medium';stroke-width:0.974447"
   d="M 308.99496,138.9678 V 49.72277 h 13.65629 v 28.510494 l -0.17969,17.789111 q 3.41407,-4.79168 7.00783,-9.28388 3.65366,-4.492199 7.90627,-9.283879 L 362.42219,49.72277 h 17.36984 L 344.69297,88.355687 380.1514,138.9678 H 363.97949 L 335.16951,97.519775 322.65125,110.93648 v 28.03132 z m 102.06278,1.4974 q -6.40887,0 -11.55993,-2.33594 -5.09116,-2.39584 -8.08596,-6.94794 -2.9948,-4.55209 -2.9948,-11.14065 0,-5.69012 2.21616,-9.34378 2.21615,-3.71355 5.9297,-5.80991 3.71355,-2.15625 8.26565,-3.23438 4.61199,-1.07813 9.34377,-1.61719 8.86461,-1.018235 12.87764,-1.736987 4.01303,-0.778648 4.01303,-4.312512 v -0.359376 q 0,-5.570328 -3.29428,-8.625023 -3.23438,-3.114592 -9.52346,-3.114592 -6.58856,0 -10.36201,2.875008 -3.77345,2.875007 -5.15105,6.289079 l -12.39847,-3.234384 q 2.27604,-5.989599 6.52866,-9.643255 4.25262,-3.653656 9.70315,-5.330744 5.51043,-1.677088 11.50003,-1.677088 4.01303,0 8.56513,0.958336 4.5521,0.958336 8.56513,3.473968 4.01303,2.455736 6.52866,7.067728 2.51563,4.611991 2.51563,11.859407 V 138.9678 h -12.75784 v -9.16408 h -0.65886 q -1.97657,3.95313 -6.82814,7.30731 -4.79168,3.35417 -12.93754,3.35417 z m 2.9349,-10.60159 q 5.33075,0 9.16409,-2.09636 3.83335,-2.15625 5.86981,-5.57032 2.09636,-3.41408 2.09636,-7.36721 v -8.56513 q -0.95834,0.95834 -4.13282,1.67709 -3.1146,0.65885 -6.58856,1.13802 -3.47397,0.47917 -5.51044,0.71875 -5.57032,0.77865 -9.58336,3.0547 -3.95313,2.21615 -3.95313,7.36721 0,4.79168 3.53386,7.24741 3.59376,2.39584 9.10419,2.39584 z m 66.72415,10.60159 q -6.40887,0 -11.55993,-2.33594 -5.09116,-2.39584 -8.08596,-6.94794 -2.9948,-4.55209 -2.9948,-11.14065 0,-5.69012 2.21616,-9.34378 2.21615,-3.71355 5.9297,-5.80991 3.71355,-2.15625 8.26565,-3.23438 4.61199,-1.07813 9.34377,-1.61719 8.86461,-1.018235 12.87764,-1.736987 4.01303,-0.778648 4.01303,-4.312512 v -0.359376 q 0,-5.570328 -3.29428,-8.625023 -3.23438,-3.114592 -9.52346,-3.114592 -6.58856,0 -10.36201,2.875008 -3.77345,2.875007 -5.15105,6.289079 l -12.39847,-3.234384 q 2.27604,-5.989599 6.52866,-9.643255 4.25262,-3.653656 9.70315,-5.330744 5.51043,-1.677088 11.50003,-1.677088 4.01303,0 8.56513,0.958336 4.5521,0.958336 8.56513,3.473968 4.01303,2.455736 6.52866,7.067728 2.51563,4.611991 2.51563,11.859407 V 138.9678 h -12.75784 v -9.16408 h -0.65886 q -1.97657,3.95313 -6.82814,7.30731 -4.79168,3.35417 -12.93754,3.35417 z m 2.9349,-10.60159 q 5.33075,0 9.16409,-2.09636 3.83335,-2.15625 5.86981,-5.57032 2.09636,-3.41408 2.09636,-7.36721 v -8.56513 q -0.95834,0.95834 -4.13282,1.67709 -3.1146,0.65885 -6.58856,1.13802 -3.47397,0.47917 -5.51044,0.71875 -5.57032,0.77865 -9.58336,3.0547 -3.95313,2.21615 -3.95313,7.36721 0,4.79168 3.53386,7.24741 3.59376,2.39584 9.10419,2.39584 z m 71.99498,10.4818 q -10.90108,0 -18.0886,-4.67189 -7.12762,-4.73178 -8.9245,-13.65628 l 12.39847,-2.57553 q 2.69532,10.24221 14.73442,10.24221 6.40887,0 10.12242,-2.63542 3.77345,-2.69532 3.77345,-6.40887 0,-6.34898 -9.40367,-8.44534 l -11.26045,-2.57552 q -18.44797,-4.13283 -18.44797,-18.507867 0,-5.989599 3.29428,-10.481799 3.35418,-4.4922 9.16409,-6.947936 5.86981,-2.515632 13.4766,-2.515632 10.84117,0 17.01046,4.671888 6.16929,4.611992 8.32555,12.039095 l -11.79952,2.575528 q -1.25781,-3.533864 -4.3724,-6.169287 -3.1146,-2.69532 -9.0443,-2.69532 -5.45053,0 -9.10419,2.455736 -3.65366,2.455735 -3.65366,6.229183 0,3.354176 2.39584,5.450536 2.45574,2.036464 7.96617,3.29428 l 10.78128,2.395835 q 18.26828,4.13283 18.26828,18.0886 0,6.10939 -3.53386,10.84117 -3.47397,4.67189 -9.70316,7.36721 -6.22918,2.63542 -14.37503,2.63542 z m 43.06521,-1.37761 V 49.72277 h 13.65629 v 37.734477 h 44.20324 V 49.72277 H 670.2876 V 138.9678 H 656.57141 V 99.196863 H 612.36817 V 138.9678 Z m 118.47429,1.37761 q -9.40368,0 -16.4714,-4.31251 -7.00783,-4.31251 -10.90107,-12.0391 -3.89324,-7.78647 -3.89324,-18.14848 0,-10.421905 3.89324,-18.208385 3.89324,-7.846375 10.90107,-12.158887 7.06772,-4.312512 16.4714,-4.312512 9.46356,0 16.4714,4.312512 7.06772,4.312512 10.96096,12.158887 3.89324,7.78648 3.89324,18.208385 0,10.36201 -3.89324,18.14848 -3.89324,7.72659 -10.96096,12.0391 -7.00784,4.31251 -16.4714,4.31251 z m 0,-11.14065 q 6.10939,0 10.06252,-3.17449 4.01304,-3.23438 5.92971,-8.50523 1.97657,-5.33075 1.97657,-11.67972 0,-6.408873 -1.97657,-11.739617 -1.91667,-5.39064 -5.92971,-8.565127 -3.95313,-3.234384 -10.06252,-3.234384 -6.0495,0 -10.00264,3.234384 -3.95313,3.174487 -5.9297,8.565127 -1.91667,5.330744 -1.91667,11.739617 0,6.34897 1.91667,11.67972 1.97657,5.27085 5.9297,8.50523 3.95314,3.17449 10.00264,3.17449 z m 69.95851,11.14065 q -10.90107,0 -18.08859,-4.67189 -7.12762,-4.73178 -8.9245,-13.65628 l 12.39847,-2.57553 q 2.69532,10.24221 14.73441,10.24221 6.40888,0 10.12243,-2.63542 3.77344,-2.69532 3.77344,-6.40887 0,-6.34898 -9.40367,-8.44534 l -11.26044,-2.57552 q -18.44797,-4.13283 -18.44797,-18.507867 0,-5.989599 3.29428,-10.481799 3.35417,-4.4922 9.16409,-6.947936 5.8698,-2.515632 13.4766,-2.515632 10.84117,0 17.01046,4.671888 6.16929,4.611992 8.32554,12.039095 l -11.79951,2.575528 q -1.25782,-3.533864 -4.37241,-6.169287 -3.11459,-2.69532 -9.04429,-2.69532 -5.45054,0 -9.10419,2.455736 -3.65366,2.455735 -3.65366,6.229183 0,3.354176 2.39584,5.450536 2.45574,2.036464 7.96617,3.29428 l 10.78128,2.395835 q 18.26828,4.13283 18.26828,18.0886 0,6.10939 -3.53387,10.84117 -3.47397,4.67189 -9.70315,7.36721 -6.22918,2.63542 -14.37504,2.63542 z m 70.6773,-68.34133 v 10.721384 h -13.35681 v 38.153746 q 0,4.01303 1.67709,5.92971 1.73699,1.85677 5.63023,1.85677 1.07812,0 2.69532,-0.23958 1.67708,-0.23959 2.875,-0.47917 l 2.33595,10.5417 q -2.09636,0.71875 -4.5521,1.01823 -2.39584,0.35937 -4.67189,0.35937 -9.10419,0 -14.13545,-4.67188 -5.03127,-4.73179 -5.03127,-13.23702 V 82.725464 h -9.76304 V 72.00408 h 9.76304 V 56.071745 h 13.17712 V 72.00408 Z m 13.11721,66.96372 V 72.00408 h 13.17712 v 66.96372 z m 6.64846,-77.205935 q -3.41407,0 -5.86981,-2.276048 -2.39584,-2.276048 -2.39584,-5.510431 0,-3.29428 2.39584,-5.570328 2.45574,-2.276048 5.86981,-2.276048 3.41407,0 5.86981,2.276048 2.45573,2.276048 2.45573,5.570328 0,3.234383 -2.45573,5.510431 -2.45574,2.276048 -5.86981,2.276048 z m 37.43497,37.55479 V 138.9678 H 901.8455 V 72.00408 h 12.57816 l 0.0599,12.87764 q 3.11459,-7.067728 8.32554,-10.362008 5.27085,-3.354176 12.33858,-3.354176 10.24221,0 16.4714,6.468768 6.28908,6.408872 6.28908,18.807343 V 138.9678 H 944.73104 V 98.058839 q 0,-7.247416 -3.77345,-11.320344 -3.77345,-4.072927 -10.36201,-4.072927 -6.70835,0 -11.14065,4.372407 -4.43231,4.312512 -4.43231,12.27868 z m 88.64608,66.125175 q -11.61982,0 -18.62766,-4.25261 -7.00783,-4.25262 -9.82294,-10.30211 l 11.02086,-5.21095 q 1.19792,1.91667 3.17449,4.01303 2.03647,2.15625 5.39064,3.65365 3.41407,1.4974 8.80471,1.4974 7.6068,0 12.3985,-3.65365 4.7917,-3.59376 4.7917,-11.32035 v -13.05732 h -1.1381 q -1.1979,2.21615 -3.3541,4.79168 -2.0964,2.57552 -5.9297,4.4922 -3.7735,1.85677 -9.8829,1.85677 -7.90626,0 -14.25524,-3.71355 -6.28907,-3.71355 -10.00263,-10.96097 -3.71355,-7.30731 -3.71355,-18.02869 0,-10.661489 3.65366,-18.268281 3.71355,-7.666687 10.06252,-11.739615 6.34898,-4.072928 14.43494,-4.072928 6.1693,0 10.0026,2.09636 3.8933,2.036464 6.0495,4.79168 2.2162,2.755216 3.3542,4.851576 h 0.9583 V 72.00408 h 12.8777 v 67.92206 q 0,8.80471 -4.0131,14.43493 -4.013,5.63023 -10.8411,8.32555 -6.8282,2.75521 -15.3933,2.75521 z m -0.1198,-38.45323 q 8.3854,0 12.8178,-5.80991 4.4922,-5.80991 4.4922,-16.11202 0,-10.062527 -4.4324,-16.351607 -4.3724,-6.348975 -12.8776,-6.348975 -5.8099,0 -9.76304,3.054696 -3.89324,2.994799 -5.86981,8.145855 -1.91667,5.09116 -1.91667,11.500031 0,9.82294 4.4323,15.87244 4.4922,6.04949 13.11722,6.04949 z"
   id="text3"
   aria-label="KaasHosting" /></svg>
