<svg xmlns="http://www.w3.org/2000/svg" width="277" height="100" fill="none"><path fill="#A855F7" d="M163.22 14.573C163.22 6.525 169.744 0 177.793 0h84.524c8.049 0 14.574 6.525 14.574 14.573v70.68c0 8.049-6.525 14.573-14.574 14.573h-84.524c-8.049 0-14.573-6.524-14.573-14.573z"/><path fill="#fff" d="M194.704 78.037q-5.468 0-9.794-2.694-4.325-2.692-6.855-7.344-2.448-4.653-2.448-10.447 0-5.876 2.448-10.527 2.53-4.652 6.774-7.345 4.325-2.693 9.875-2.693 4.244 0 7.589 1.714 3.428 1.713 5.468 4.815 2.122 3.02 2.285 6.855v14.037q-.163 3.835-2.203 6.936t-5.468 4.897q-3.428 1.796-7.671 1.796m1.795-9.875q3.02 0 5.223-1.306a9.33 9.33 0 0 0 3.509-3.754q1.306-2.449 1.306-5.631 0-3.102-1.306-5.468-1.224-2.448-3.509-3.754-2.204-1.388-5.141-1.388-3.02 0-5.305 1.388-2.204 1.387-3.509 3.754-1.224 2.367-1.224 5.468 0 3.183 1.224 5.63a9.9 9.9 0 0 0 3.591 3.755q2.285 1.306 5.141 1.306m20.076 9.058h-10.609V66.611l1.714-9.63-1.796-9.467V18.216h10.691zM220.932 77.22V37.803h10.773V77.22zm5.387-45.783q-2.612 0-4.326-1.713-1.714-1.796-1.714-4.407 0-2.53 1.714-4.326 1.715-1.795 4.326-1.795 2.693 0 4.325 1.795 1.714 1.795 1.714 4.326 0 2.61-1.714 4.407-1.632 1.713-4.325 1.713M236.075 77.22V37.803h10.691V77.22zm10.691-21.79-4.162-2.774q.734-7.263 4.243-11.425 3.51-4.245 10.12-4.244 2.856 0 5.141.98 2.286.897 4.162 3.019l-6.692 7.671a5.6 5.6 0 0 0-2.203-1.469q-1.224-.49-2.856-.49-3.429 0-5.632 2.204-2.121 2.12-2.121 6.529"/><path fill="#000" d="M0 77.046V19.674h11.099v57.372zm8.161 0V67.17h29.216v9.874zM57.468 77.862q-5.386 0-9.711-2.693t-6.774-7.345q-2.448-4.653-2.448-10.446 0-5.877 2.448-10.528t6.774-7.345q4.325-2.693 9.711-2.693 4.245 0 7.59 1.714 3.346 1.713 5.305 4.815 2.04 3.02 2.203 6.855v14.2q-.163 3.917-2.203 6.937-1.959 3.02-5.305 4.815-3.345 1.713-7.59 1.714m1.959-9.875q4.488 0 7.263-2.938 2.775-3.02 2.775-7.753 0-3.102-1.306-5.468-1.224-2.449-3.51-3.754-2.203-1.387-5.222-1.387-2.939 0-5.223 1.387-2.204 1.305-3.51 3.754-1.224 2.367-1.224 5.468 0 3.183 1.225 5.631 1.305 2.367 3.509 3.754 2.285 1.305 5.223 1.306m9.467 9.059v-10.61l1.713-9.63-1.713-9.466v-9.712h10.609v39.418zM83.86 77.046V37.628h10.691v39.418zm10.691-21.79-4.162-2.775q.734-7.263 4.244-11.425 3.51-4.245 10.119-4.244 2.856 0 5.142.98 2.284.897 4.162 3.019l-6.692 7.671a5.6 5.6 0 0 0-2.204-1.469q-1.224-.49-2.856-.49-3.428 0-5.631 2.204-2.122 2.122-2.122 6.529M130.266 77.862q-5.386 0-9.712-2.693t-6.773-7.345q-2.45-4.653-2.449-10.446 0-5.877 2.449-10.528t6.773-7.345q4.326-2.693 9.712-2.693 4.244 0 7.59 1.714t5.304 4.815q2.04 3.02 2.204 6.855v14.2q-.164 3.917-2.204 6.937-1.959 3.02-5.304 4.815-3.346 1.713-7.59 1.714m1.959-9.875q4.488 0 7.263-2.938 2.775-3.02 2.775-7.753 0-3.102-1.306-5.468-1.224-2.449-3.509-3.754-2.203-1.387-5.223-1.387-2.938 0-5.224 1.387-2.202 1.305-3.509 3.754-1.224 2.367-1.224 5.468 0 3.183 1.224 5.631 1.307 2.367 3.509 3.754 2.286 1.305 5.224 1.306m9.466 9.059v-10.61l1.714-9.63-1.714-9.466v-9.712h10.61v39.418z"/></svg>