<?xml version="1.0" encoding="UTF-8" standalone="no"?>
<!DOCTYPE svg PUBLIC "-//W3C//DTD SVG 1.1//EN" "http://www.w3.org/Graphics/SVG/1.1/DTD/svg11.dtd">
<svg width="100%" height="100%" viewBox="0 0 4617 1157" version="1.1" xmlns="http://www.w3.org/2000/svg" xmlns:xlink="http://www.w3.org/1999/xlink" xml:space="preserve" xmlns:serif="http://www.serif.com/" style="fill-rule:evenodd;clip-rule:evenodd;stroke-linejoin:round;stroke-miterlimit:2;">
    <g transform="matrix(1,0,0,1,-173.687,-202.535)">
        <g transform="matrix(4.16667,0,0,4.16667,0,0)">
            <g transform="matrix(0.872116,0,0,0.872116,-409.679,-90.6191)">
                <g transform="matrix(1,0,0,1,727.478,492.022)">
                    <path d="M0,-266.31C-20.34,-263.481 -41.196,-263.016 -60.589,-257.45C-134.809,-236.146 -162.206,-141.931 -112.126,-83.314C-57.476,-19.346 47.219,-15.828 109.853,-75.492C135.486,-99.909 151.888,-129.532 162.255,-162.94C163.788,-167.882 165.525,-172.762 168.627,-177.218C168.351,-152.941 161.094,-130.57 150.264,-109.226C91.712,6.16 -62.408,18.047 -139.207,-82.1C-194.886,-154.707 -147.803,-270.487 -59.302,-281.372C-35.027,-284.357 -12.572,-278.47 0,-266.31" style="fill:rgb(153,25,20);fill-rule:nonzero;"/>
                </g>
                <g transform="matrix(1,0,0,1,686.977,170.713)">
                    <path d="M0,237.497C13.454,237.497 27.133,239.084 40.322,237.212C87.968,230.448 124.249,197.077 135.178,150.291C146.382,102.328 127.119,65.375 89.927,37.128C17.905,-17.571 -88.692,3.855 -137.362,82.831C-147.797,99.765 -154.218,119.186 -162.314,137.537C-164.213,141.84 -165.404,146.456 -169.325,150.451C-169.325,147.756 -169.577,145.033 -169.289,142.369C-161.932,74.431 -110.06,13.705 -43.676,-4.764C23.694,-23.508 96.263,0.41 138.206,55.383C191.129,124.744 153.416,215.267 93.774,246.571C67.86,260.173 40.044,261.005 12.488,249.965C7.713,248.052 3.368,245.064 -1.176,242.572C-0.784,240.88 -0.392,239.189 0,237.497" style="fill:rgb(153,25,20);fill-rule:nonzero;"/>
                </g>
                <g transform="matrix(0.99999,-0.00451441,-0.00451441,-0.99999,707.679,381.475)">
                    <path d="M-0.285,-0.001C-34.337,-0.249 -63.693,28.654 -63.762,62.497C-63.835,98.164 -35.964,126.162 -0.285,126.262C35.369,126.363 63.49,98.282 63.355,62.712C63.229,29.139 33.91,0.248 -0.285,-0.001" style="fill:rgb(153,25,20);fill-rule:nonzero;"/>
                </g>
            </g>
        </g>
        <g transform="matrix(4.16667,0,0,4.16667,0,0)">
            <g transform="matrix(1,0,0,1,-96,-37.6625)">
                <g transform="matrix(3.10762,0,0,3.10762,-6030.42,-6960.43)">
                    <path d="M2116.95,2307.75L2116.95,2321.87L2110.22,2321.87L2110.22,2285.72L2121.25,2285.72C2123.72,2285.72 2125.83,2285.98 2127.59,2286.48C2129.35,2286.99 2130.79,2287.7 2131.91,2288.62C2133.04,2289.54 2133.86,2290.63 2134.39,2291.91C2134.91,2293.18 2135.17,2294.59 2135.17,2296.12C2135.17,2297.34 2134.99,2298.49 2134.64,2299.57C2134.28,2300.66 2133.76,2301.64 2133.09,2302.52C2132.41,2303.41 2131.58,2304.18 2130.59,2304.85C2129.6,2305.51 2128.47,2306.05 2127.2,2306.45C2128.05,2306.93 2128.78,2307.62 2129.4,2308.52L2138.45,2321.87L2132.4,2321.87C2131.82,2321.87 2131.32,2321.76 2130.91,2321.52C2130.5,2321.29 2130.16,2320.95 2129.87,2320.52L2122.27,2308.95C2121.99,2308.51 2121.68,2308.2 2121.34,2308.02C2120.99,2307.84 2120.49,2307.75 2119.82,2307.75L2116.95,2307.75ZM2116.95,2302.92L2121.15,2302.92C2122.42,2302.92 2123.52,2302.76 2124.46,2302.45C2125.4,2302.13 2126.18,2301.69 2126.79,2301.13C2127.39,2300.58 2127.85,2299.91 2128.15,2299.15C2128.45,2298.38 2128.6,2297.54 2128.6,2296.62C2128.6,2294.79 2127.99,2293.38 2126.79,2292.4C2125.58,2291.41 2123.73,2290.92 2121.25,2290.92L2116.95,2290.92L2116.95,2302.92Z" style="fill:rgb(102,103,103);fill-rule:nonzero;"/>
                    <path d="M2149.85,2295.82C2151.47,2295.82 2152.95,2296.08 2154.31,2296.6C2155.67,2297.11 2156.84,2297.87 2157.82,2298.86C2158.81,2299.85 2159.57,2301.07 2160.12,2302.51C2160.67,2303.95 2160.95,2305.6 2160.95,2307.45C2160.95,2307.91 2160.93,2308.3 2160.89,2308.61C2160.85,2308.92 2160.77,2309.16 2160.66,2309.33C2160.55,2309.51 2160.41,2309.63 2160.22,2309.71C2160.04,2309.78 2159.81,2309.82 2159.52,2309.82L2143.67,2309.82C2143.86,2312.45 2144.57,2314.39 2145.8,2315.62C2147.03,2316.86 2148.67,2317.47 2150.7,2317.47C2151.7,2317.47 2152.56,2317.36 2153.29,2317.12C2154.01,2316.89 2154.64,2316.63 2155.19,2316.35C2155.73,2316.06 2156.2,2315.8 2156.61,2315.57C2157.02,2315.34 2157.42,2315.22 2157.8,2315.22C2158.05,2315.22 2158.27,2315.27 2158.45,2315.37C2158.63,2315.47 2158.79,2315.61 2158.92,2315.8L2160.72,2318.05C2160.04,2318.85 2159.27,2319.52 2158.42,2320.06C2157.57,2320.6 2156.69,2321.03 2155.76,2321.36C2154.84,2321.68 2153.89,2321.91 2152.94,2322.05C2151.98,2322.18 2151.05,2322.25 2150.15,2322.25C2148.37,2322.25 2146.71,2321.95 2145.17,2321.36C2143.64,2320.77 2142.31,2319.89 2141.17,2318.73C2140.04,2317.58 2139.15,2316.14 2138.5,2314.43C2137.85,2312.73 2137.52,2310.75 2137.52,2308.5C2137.52,2306.75 2137.81,2305.1 2138.37,2303.56C2138.94,2302.02 2139.75,2300.68 2140.81,2299.53C2141.87,2298.39 2143.16,2297.49 2144.69,2296.82C2146.21,2296.16 2147.93,2295.82 2149.85,2295.82ZM2149.97,2300.25C2148.17,2300.25 2146.77,2300.76 2145.75,2301.77C2144.73,2302.79 2144.08,2304.23 2143.8,2306.1L2155.4,2306.1C2155.4,2305.3 2155.29,2304.54 2155.07,2303.83C2154.86,2303.13 2154.52,2302.51 2154.07,2301.97C2153.62,2301.44 2153.06,2301.02 2152.37,2300.71C2151.69,2300.4 2150.89,2300.25 2149.97,2300.25Z" style="fill:rgb(102,103,103);fill-rule:nonzero;"/>
                    <path d="M2183.77,2321.87C2182.97,2321.87 2182.45,2321.5 2182.2,2320.75L2181.7,2318.27C2181.17,2318.87 2180.61,2319.41 2180.02,2319.9C2179.44,2320.38 2178.81,2320.8 2178.14,2321.15C2177.46,2321.5 2176.74,2321.77 2175.96,2321.96C2175.19,2322.15 2174.35,2322.25 2173.45,2322.25C2172.05,2322.25 2170.77,2321.95 2169.6,2321.37C2168.43,2320.79 2167.43,2319.94 2166.59,2318.83C2165.74,2317.73 2165.1,2316.36 2164.64,2314.72C2164.18,2313.09 2163.95,2311.22 2163.95,2309.12C2163.95,2307.22 2164.21,2305.45 2164.72,2303.82C2165.24,2302.19 2165.98,2300.77 2166.95,2299.57C2167.92,2298.37 2169.07,2297.43 2170.42,2296.76C2171.77,2296.08 2173.29,2295.75 2174.97,2295.75C2176.41,2295.75 2177.63,2295.98 2178.65,2296.43C2179.67,2296.89 2180.57,2297.51 2181.37,2298.27L2181.37,2284.72L2187.55,2284.72L2187.55,2321.87L2183.77,2321.87ZM2175.55,2317.35C2176.83,2317.35 2177.92,2317.08 2178.82,2316.55C2179.72,2316.01 2180.57,2315.26 2181.37,2314.27L2181.37,2302.77C2180.67,2301.92 2179.91,2301.32 2179.09,2300.97C2178.26,2300.62 2177.37,2300.45 2176.42,2300.45C2175.49,2300.45 2174.64,2300.62 2173.89,2300.97C2173.13,2301.32 2172.49,2301.85 2171.96,2302.56C2171.44,2303.27 2171.03,2304.17 2170.75,2305.26C2170.47,2306.35 2170.32,2307.64 2170.32,2309.12C2170.32,2310.62 2170.45,2311.89 2170.69,2312.93C2170.93,2313.98 2171.27,2314.83 2171.72,2315.48C2172.17,2316.14 2172.72,2316.62 2173.37,2316.91C2174.02,2317.2 2174.75,2317.35 2175.55,2317.35Z" style="fill:rgb(102,103,103);fill-rule:nonzero;"/>
                    <path d="M2210.92,2316.92C2212.44,2316.92 2213.76,2316.78 2214.89,2316.51C2216.01,2316.23 2217.08,2315.86 2218.1,2315.37L2218.1,2308.8L2213.57,2308.8C2213.14,2308.8 2212.8,2308.68 2212.55,2308.43C2212.3,2308.19 2212.17,2307.9 2212.17,2307.55L2212.17,2303.75L2224.2,2303.75L2224.2,2318.37C2223.28,2319.04 2222.33,2319.62 2221.34,2320.11C2220.35,2320.6 2219.29,2321.01 2218.16,2321.32C2217.04,2321.64 2215.83,2321.88 2214.55,2322.03C2213.27,2322.19 2211.88,2322.27 2210.4,2322.27C2207.77,2322.27 2205.34,2321.81 2203.12,2320.9C2200.91,2319.98 2198.99,2318.7 2197.37,2317.07C2195.76,2315.44 2194.49,2313.49 2193.59,2311.22C2192.68,2308.95 2192.22,2306.48 2192.22,2303.8C2192.22,2301.08 2192.67,2298.59 2193.55,2296.32C2194.43,2294.05 2195.69,2292.11 2197.31,2290.47C2198.94,2288.84 2200.91,2287.57 2203.22,2286.67C2205.54,2285.77 2208.14,2285.32 2211.02,2285.32C2213.97,2285.32 2216.53,2285.76 2218.69,2286.63C2220.85,2287.51 2222.67,2288.65 2224.17,2290.05L2222.22,2293.1C2221.84,2293.71 2221.33,2294.02 2220.7,2294.02C2220.3,2294.02 2219.89,2293.89 2219.47,2293.62C2218.94,2293.3 2218.39,2292.99 2217.84,2292.67C2217.28,2292.36 2216.66,2292.08 2215.99,2291.85C2215.31,2291.61 2214.55,2291.42 2213.71,2291.27C2212.87,2291.12 2211.9,2291.05 2210.8,2291.05C2209.02,2291.05 2207.4,2291.35 2205.96,2291.95C2204.52,2292.55 2203.29,2293.41 2202.27,2294.52C2201.26,2295.64 2200.47,2296.98 2199.92,2298.55C2199.37,2300.11 2199.1,2301.86 2199.1,2303.8C2199.1,2305.88 2199.39,2307.73 2199.97,2309.36C2200.56,2310.98 2201.37,2312.36 2202.42,2313.47C2203.47,2314.59 2204.72,2315.44 2206.17,2316.03C2207.62,2316.63 2209.21,2316.92 2210.92,2316.92Z" style="fill:rgb(102,103,103);fill-rule:nonzero;"/>
                    <path d="M2248.72,2321.87L2245.95,2321.87C2245.37,2321.87 2244.91,2321.78 2244.57,2321.61C2244.24,2321.43 2243.99,2321.08 2243.82,2320.55L2243.27,2318.72C2242.62,2319.3 2241.99,2319.82 2241.36,2320.26C2240.74,2320.7 2240.09,2321.07 2239.42,2321.37C2238.76,2321.67 2238.05,2321.9 2237.3,2322.05C2236.55,2322.2 2235.72,2322.27 2234.8,2322.27C2233.72,2322.27 2232.72,2322.13 2231.8,2321.83C2230.88,2321.54 2230.1,2321.11 2229.44,2320.52C2228.78,2319.94 2228.27,2319.21 2227.9,2318.35C2227.53,2317.48 2227.35,2316.47 2227.35,2315.32C2227.35,2314.36 2227.6,2313.4 2228.11,2312.46C2228.62,2311.52 2229.47,2310.67 2230.65,2309.91C2231.83,2309.15 2233.41,2308.52 2235.37,2308.02C2237.34,2307.52 2239.78,2307.24 2242.7,2307.17L2242.7,2305.67C2242.7,2303.95 2242.34,2302.68 2241.61,2301.86C2240.89,2301.03 2239.83,2300.62 2238.45,2300.62C2237.45,2300.62 2236.62,2300.74 2235.95,2300.97C2235.28,2301.2 2234.7,2301.47 2234.21,2301.76C2233.72,2302.05 2233.27,2302.31 2232.85,2302.55C2232.43,2302.78 2231.97,2302.9 2231.47,2302.9C2231.06,2302.9 2230.7,2302.79 2230.4,2302.57C2230.1,2302.36 2229.86,2302.09 2229.67,2301.77L2228.55,2299.8C2231.5,2297.1 2235.06,2295.75 2239.22,2295.75C2240.72,2295.75 2242.06,2295.99 2243.24,2296.48C2244.41,2296.98 2245.41,2297.66 2246.22,2298.53C2247.04,2299.41 2247.66,2300.45 2248.09,2301.67C2248.51,2302.89 2248.72,2304.22 2248.72,2305.67L2248.72,2321.87ZM2236.72,2318.02C2237.36,2318.02 2237.94,2317.96 2238.47,2317.85C2239.01,2317.73 2239.51,2317.55 2239.99,2317.32C2240.46,2317.09 2240.92,2316.8 2241.36,2316.46C2241.8,2316.12 2242.25,2315.71 2242.7,2315.25L2242.7,2310.92C2240.9,2311.01 2239.39,2311.16 2238.19,2311.38C2236.98,2311.61 2236.01,2311.9 2235.27,2312.25C2234.54,2312.6 2234.02,2313.01 2233.71,2313.47C2233.4,2313.94 2233.25,2314.45 2233.25,2315C2233.25,2316.08 2233.57,2316.86 2234.21,2317.32C2234.85,2317.79 2235.69,2318.02 2236.72,2318.02Z" style="fill:rgb(102,103,103);fill-rule:nonzero;"/>
                    <rect x="2253.7" y="2284.72" width="6.175" height="37.15" style="fill:rgb(102,103,103);fill-rule:nonzero;"/>
                    <path d="M2284.45,2321.87L2281.67,2321.87C2281.09,2321.87 2280.63,2321.78 2280.3,2321.61C2279.97,2321.43 2279.72,2321.08 2279.55,2320.55L2279,2318.72C2278.35,2319.3 2277.71,2319.82 2277.09,2320.26C2276.46,2320.7 2275.82,2321.07 2275.15,2321.37C2274.48,2321.67 2273.77,2321.9 2273.02,2322.05C2272.27,2322.2 2271.44,2322.27 2270.52,2322.27C2269.44,2322.27 2268.44,2322.13 2267.52,2321.83C2266.61,2321.54 2265.82,2321.11 2265.16,2320.52C2264.5,2319.94 2263.99,2319.21 2263.62,2318.35C2263.26,2317.48 2263.07,2316.47 2263.07,2315.32C2263.07,2314.36 2263.33,2313.4 2263.84,2312.46C2264.35,2311.52 2265.19,2310.67 2266.37,2309.91C2267.56,2309.15 2269.13,2308.52 2271.1,2308.02C2273.07,2307.52 2275.51,2307.24 2278.42,2307.17L2278.42,2305.67C2278.42,2303.95 2278.06,2302.68 2277.34,2301.86C2276.61,2301.03 2275.56,2300.62 2274.17,2300.62C2273.17,2300.62 2272.34,2300.74 2271.67,2300.97C2271.01,2301.2 2270.43,2301.47 2269.94,2301.76C2269.45,2302.05 2268.99,2302.31 2268.57,2302.55C2268.16,2302.78 2267.7,2302.9 2267.2,2302.9C2266.78,2302.9 2266.42,2302.79 2266.12,2302.57C2265.82,2302.36 2265.58,2302.09 2265.4,2301.77L2264.27,2299.8C2267.22,2297.1 2270.78,2295.75 2274.95,2295.75C2276.45,2295.75 2277.79,2295.99 2278.96,2296.48C2280.14,2296.98 2281.13,2297.66 2281.95,2298.53C2282.77,2299.41 2283.39,2300.45 2283.81,2301.67C2284.24,2302.89 2284.45,2304.22 2284.45,2305.67L2284.45,2321.87ZM2272.45,2318.02C2273.08,2318.02 2273.67,2317.96 2274.2,2317.85C2274.73,2317.73 2275.24,2317.55 2275.71,2317.32C2276.19,2317.09 2276.64,2316.8 2277.09,2316.46C2277.53,2316.12 2277.97,2315.71 2278.42,2315.25L2278.42,2310.92C2276.62,2311.01 2275.12,2311.16 2273.91,2311.38C2272.7,2311.61 2271.73,2311.9 2271,2312.25C2270.27,2312.6 2269.74,2313.01 2269.44,2313.47C2269.13,2313.94 2268.97,2314.45 2268.97,2315C2268.97,2316.08 2269.3,2316.86 2269.94,2317.32C2270.58,2317.79 2271.42,2318.02 2272.45,2318.02Z" style="fill:rgb(102,103,103);fill-rule:nonzero;"/>
                    <path d="M2296.1,2308.65L2287.67,2296.22L2293.62,2296.22C2294.07,2296.22 2294.41,2296.28 2294.62,2296.41C2294.84,2296.53 2295.03,2296.74 2295.2,2297.02L2300.57,2305.6C2300.66,2305.31 2300.76,2305.03 2300.89,2304.75C2301.01,2304.46 2301.17,2304.18 2301.35,2303.9L2305.67,2297.15C2305.87,2296.83 2306.08,2296.6 2306.3,2296.45C2306.52,2296.3 2306.78,2296.22 2307.1,2296.22L2312.77,2296.22L2304.32,2308.37L2313.12,2321.87L2307.17,2321.87C2306.72,2321.87 2306.36,2321.76 2306.09,2321.52C2305.81,2321.29 2305.58,2321.02 2305.4,2320.72L2299.95,2311.8C2299.8,2312.4 2299.59,2312.9 2299.32,2313.3L2294.52,2320.72C2294.34,2321.01 2294.12,2321.27 2293.85,2321.51C2293.58,2321.75 2293.25,2321.87 2292.85,2321.87L2287.32,2321.87L2296.1,2308.65Z" style="fill:rgb(102,103,103);fill-rule:nonzero;"/>
                    <path d="M2327.37,2328.92C2327.19,2329.36 2326.95,2329.68 2326.66,2329.91C2326.37,2330.13 2325.92,2330.25 2325.32,2330.25L2320.72,2330.25L2325.52,2319.97L2315.15,2296.22L2320.55,2296.22C2321.05,2296.22 2321.43,2296.34 2321.7,2296.57C2321.97,2296.8 2322.17,2297.07 2322.3,2297.37L2327.77,2310.67C2327.96,2311.11 2328.12,2311.55 2328.25,2312.02C2328.38,2312.49 2328.5,2312.95 2328.6,2313.42C2328.73,2312.94 2328.88,2312.47 2329.04,2312.02C2329.2,2311.57 2329.37,2311.11 2329.55,2310.65L2334.7,2297.37C2334.83,2297.04 2335.05,2296.76 2335.36,2296.55C2335.67,2296.33 2336.02,2296.22 2336.4,2296.22L2341.35,2296.22L2327.37,2328.92Z" style="fill:rgb(102,103,103);fill-rule:nonzero;"/>
                </g>
                <g transform="matrix(0.194085,0,0,0.194085,90.179,-130.924)">
                    <path d="M2255.42,2271.96L2255.42,2080.89L2316.35,2080.89C2328.08,2080.89 2338.2,2082.05 2346.68,2084.36C2355.17,2086.67 2362.15,2089.96 2367.62,2094.22C2373.08,2098.49 2377.13,2103.71 2379.75,2109.89C2382.37,2116.07 2383.68,2123.02 2383.68,2130.76C2383.68,2135.47 2382.95,2140 2381.48,2144.36C2380.02,2148.71 2377.8,2152.76 2374.82,2156.49C2371.84,2160.22 2368.11,2163.56 2363.62,2166.49C2359.13,2169.42 2353.86,2171.82 2347.82,2173.69C2361.77,2176.45 2372.31,2181.47 2379.42,2188.76C2386.53,2196.05 2390.08,2205.65 2390.08,2217.56C2390.08,2225.65 2388.6,2233.02 2385.62,2239.69C2382.64,2246.36 2378.28,2252.09 2372.55,2256.89C2366.82,2261.69 2359.8,2265.4 2351.48,2268.02C2343.17,2270.65 2333.68,2271.96 2323.02,2271.96L2255.42,2271.96ZM2281.28,2184.89L2281.28,2251.42L2322.62,2251.42C2329.99,2251.42 2336.33,2250.58 2341.62,2248.89C2346.91,2247.2 2351.26,2244.82 2354.68,2241.76C2358.11,2238.69 2360.62,2235.05 2362.22,2230.82C2363.82,2226.6 2364.62,2221.96 2364.62,2216.89C2364.62,2207.02 2361.13,2199.22 2354.15,2193.49C2347.17,2187.76 2336.62,2184.89 2322.48,2184.89L2281.28,2184.89ZM2281.28,2166.49L2315.42,2166.49C2322.71,2166.49 2329.02,2165.69 2334.35,2164.09C2339.68,2162.49 2344.11,2160.27 2347.62,2157.42C2351.13,2154.58 2353.73,2151.14 2355.42,2147.09C2357.11,2143.05 2357.95,2138.62 2357.95,2133.82C2357.95,2122.62 2354.57,2114.4 2347.82,2109.16C2341.06,2103.91 2330.57,2101.29 2316.35,2101.29L2281.28,2101.29L2281.28,2166.49Z" style="fill:rgb(102,103,103);fill-rule:nonzero;"/>
                    <path d="M2444.75,2136.89L2444.75,2223.02C2444.75,2233.25 2447.11,2241.16 2451.82,2246.76C2456.53,2252.36 2463.64,2255.16 2473.15,2255.16C2480.08,2255.16 2486.62,2253.51 2492.75,2250.22C2498.88,2246.93 2504.53,2242.36 2509.68,2236.49L2509.68,2136.89L2533.42,2136.89L2533.42,2271.96L2519.28,2271.96C2515.91,2271.96 2513.77,2270.31 2512.88,2267.02L2511.02,2252.49C2505.15,2258.98 2498.57,2264.2 2491.28,2268.16C2483.99,2272.11 2475.64,2274.09 2466.22,2274.09C2458.84,2274.09 2452.33,2272.87 2446.68,2270.42C2441.04,2267.98 2436.31,2264.53 2432.48,2260.09C2428.66,2255.65 2425.8,2250.27 2423.88,2243.96C2421.97,2237.65 2421.02,2230.67 2421.02,2223.02L2421.02,2136.89L2444.75,2136.89Z" style="fill:rgb(102,103,103);fill-rule:nonzero;"/>
                    <path d="M2649.82,2159.16C2648.75,2161.11 2647.11,2162.09 2644.88,2162.09C2643.55,2162.09 2642.04,2161.6 2640.35,2160.62C2638.66,2159.65 2636.6,2158.56 2634.15,2157.36C2631.71,2156.16 2628.8,2155.05 2625.42,2154.02C2622.04,2153 2618.04,2152.49 2613.42,2152.49C2609.42,2152.49 2605.82,2153 2602.62,2154.02C2599.42,2155.05 2596.68,2156.45 2594.42,2158.22C2592.15,2160 2590.42,2162.07 2589.22,2164.42C2588.02,2166.78 2587.42,2169.34 2587.42,2172.09C2587.42,2175.56 2588.42,2178.45 2590.42,2180.76C2592.42,2183.07 2595.06,2185.07 2598.35,2186.76C2601.64,2188.45 2605.37,2189.93 2609.55,2191.22C2613.73,2192.51 2618.02,2193.89 2622.42,2195.36C2626.82,2196.82 2631.11,2198.45 2635.28,2200.22C2639.46,2202 2643.2,2204.22 2646.48,2206.89C2649.77,2209.56 2652.42,2212.82 2654.42,2216.69C2656.42,2220.56 2657.42,2225.2 2657.42,2230.62C2657.42,2236.85 2656.31,2242.6 2654.08,2247.89C2651.86,2253.18 2648.57,2257.76 2644.22,2261.62C2639.86,2265.49 2634.53,2268.53 2628.22,2270.76C2621.91,2272.98 2614.62,2274.09 2606.35,2274.09C2596.93,2274.09 2588.39,2272.56 2580.75,2269.49C2573.11,2266.42 2566.62,2262.49 2561.28,2257.69L2566.88,2248.62C2567.6,2247.47 2568.44,2246.58 2569.42,2245.96C2570.39,2245.34 2571.68,2245.02 2573.28,2245.02C2574.88,2245.02 2576.57,2245.65 2578.35,2246.89C2580.13,2248.14 2582.28,2249.51 2584.82,2251.02C2587.35,2252.53 2590.42,2253.91 2594.02,2255.16C2597.62,2256.4 2602.13,2257.02 2607.55,2257.02C2612.17,2257.02 2616.22,2256.42 2619.68,2255.22C2623.15,2254.02 2626.04,2252.4 2628.35,2250.36C2630.66,2248.31 2632.37,2245.96 2633.48,2243.29C2634.6,2240.62 2635.15,2237.78 2635.15,2234.76C2635.15,2231.02 2634.15,2227.93 2632.15,2225.49C2630.15,2223.05 2627.51,2220.96 2624.22,2219.22C2620.93,2217.49 2617.17,2215.98 2612.95,2214.69C2608.73,2213.4 2604.42,2212.05 2600.02,2210.62C2595.62,2209.2 2591.31,2207.58 2587.08,2205.76C2582.86,2203.93 2579.11,2201.65 2575.82,2198.89C2572.53,2196.14 2569.88,2192.74 2567.88,2188.69C2565.88,2184.65 2564.88,2179.74 2564.88,2173.96C2564.88,2168.8 2565.95,2163.85 2568.08,2159.09C2570.22,2154.34 2573.33,2150.16 2577.42,2146.56C2581.51,2142.96 2586.53,2140.09 2592.48,2137.96C2598.44,2135.82 2605.24,2134.76 2612.88,2134.76C2621.77,2134.76 2629.75,2136.16 2636.82,2138.96C2643.88,2141.76 2649.99,2145.6 2655.15,2150.49L2649.82,2159.16Z" style="fill:rgb(102,103,103);fill-rule:nonzero;"/>
                    <path d="M2714.62,2136.89L2714.62,2271.96L2690.88,2271.96L2690.88,2136.89L2714.62,2136.89ZM2719.95,2094.49C2719.95,2096.8 2719.48,2098.96 2718.55,2100.96C2717.62,2102.96 2716.37,2104.74 2714.82,2106.29C2713.26,2107.85 2711.46,2109.07 2709.42,2109.96C2707.37,2110.85 2705.2,2111.29 2702.88,2111.29C2700.57,2111.29 2698.42,2110.85 2696.42,2109.96C2694.42,2109.07 2692.64,2107.85 2691.08,2106.29C2689.53,2104.74 2688.31,2102.96 2687.42,2100.96C2686.53,2098.96 2686.08,2096.8 2686.08,2094.49C2686.08,2092.18 2686.53,2089.98 2687.42,2087.89C2688.31,2085.8 2689.53,2083.98 2691.08,2082.42C2692.64,2080.87 2694.42,2079.65 2696.42,2078.76C2698.42,2077.87 2700.57,2077.42 2702.88,2077.42C2705.2,2077.42 2707.37,2077.87 2709.42,2078.76C2711.46,2079.65 2713.26,2080.87 2714.82,2082.42C2716.37,2083.98 2717.62,2085.8 2718.55,2087.89C2719.48,2089.98 2719.95,2092.18 2719.95,2094.49Z" style="fill:rgb(102,103,103);fill-rule:nonzero;"/>
                    <path d="M2756.48,2271.96L2756.48,2136.89L2770.62,2136.89C2773.99,2136.89 2776.13,2138.53 2777.02,2141.82L2778.88,2156.49C2784.75,2150 2791.31,2144.76 2798.55,2140.76C2805.8,2136.76 2814.17,2134.76 2823.68,2134.76C2831.06,2134.76 2837.57,2135.98 2843.22,2138.42C2848.86,2140.87 2853.57,2144.34 2857.35,2148.82C2861.13,2153.31 2863.99,2158.71 2865.95,2165.02C2867.91,2171.34 2868.88,2178.31 2868.88,2185.96L2868.88,2271.96L2845.15,2271.96L2845.15,2185.96C2845.15,2175.74 2842.82,2167.8 2838.15,2162.16C2833.48,2156.51 2826.35,2153.69 2816.75,2153.69C2809.73,2153.69 2803.17,2155.38 2797.08,2158.76C2790.99,2162.14 2785.37,2166.71 2780.22,2172.49L2780.22,2271.96L2756.48,2271.96Z" style="fill:rgb(102,103,103);fill-rule:nonzero;"/>
                    <path d="M2958.22,2134.76C2966.31,2134.76 2973.77,2136.11 2980.62,2138.82C2987.46,2141.53 2993.37,2145.45 2998.35,2150.56C3003.33,2155.67 3007.22,2161.98 3010.02,2169.49C3012.82,2177 3014.22,2185.56 3014.22,2195.16C3014.22,2198.89 3013.82,2201.38 3013.02,2202.62C3012.22,2203.87 3010.71,2204.49 3008.48,2204.49L2918.62,2204.49C2918.8,2213.02 2919.95,2220.45 2922.08,2226.76C2924.22,2233.07 2927.15,2238.34 2930.88,2242.56C2934.62,2246.78 2939.06,2249.93 2944.22,2252.02C2949.37,2254.11 2955.15,2255.16 2961.55,2255.16C2967.51,2255.16 2972.64,2254.47 2976.95,2253.09C2981.26,2251.71 2984.97,2250.22 2988.08,2248.62C2991.2,2247.02 2993.8,2245.53 2995.88,2244.16C2997.97,2242.78 2999.77,2242.09 3001.28,2242.09C3003.24,2242.09 3004.75,2242.85 3005.82,2244.36L3012.48,2253.02C3009.55,2256.58 3006.04,2259.67 3001.95,2262.29C2997.86,2264.91 2993.48,2267.07 2988.82,2268.76C2984.15,2270.45 2979.33,2271.71 2974.35,2272.56C2969.37,2273.4 2964.44,2273.82 2959.55,2273.82C2950.22,2273.82 2941.62,2272.25 2933.75,2269.09C2925.88,2265.93 2919.08,2261.31 2913.35,2255.22C2907.62,2249.14 2903.15,2241.6 2899.95,2232.62C2896.75,2223.65 2895.15,2213.34 2895.15,2201.69C2895.15,2192.27 2896.6,2183.47 2899.48,2175.29C2902.37,2167.11 2906.53,2160.02 2911.95,2154.02C2917.37,2148.02 2923.99,2143.31 2931.82,2139.89C2939.64,2136.47 2948.44,2134.76 2958.22,2134.76ZM2958.75,2152.22C2947.28,2152.22 2938.26,2155.53 2931.68,2162.16C2925.11,2168.78 2921.02,2177.96 2919.42,2189.69L2992.88,2189.69C2992.88,2184.18 2992.13,2179.14 2990.62,2174.56C2989.11,2169.98 2986.88,2166.02 2983.95,2162.69C2981.02,2159.36 2977.44,2156.78 2973.22,2154.96C2968.99,2153.14 2964.17,2152.22 2958.75,2152.22Z" style="fill:rgb(102,103,103);fill-rule:nonzero;"/>
                    <path d="M3121.82,2159.16C3120.75,2161.11 3119.11,2162.09 3116.88,2162.09C3115.55,2162.09 3114.04,2161.6 3112.35,2160.62C3110.66,2159.65 3108.6,2158.56 3106.15,2157.36C3103.71,2156.16 3100.8,2155.05 3097.42,2154.02C3094.04,2153 3090.04,2152.49 3085.42,2152.49C3081.42,2152.49 3077.82,2153 3074.62,2154.02C3071.42,2155.05 3068.68,2156.45 3066.42,2158.22C3064.15,2160 3062.42,2162.07 3061.22,2164.42C3060.02,2166.78 3059.42,2169.34 3059.42,2172.09C3059.42,2175.56 3060.42,2178.45 3062.42,2180.76C3064.42,2183.07 3067.06,2185.07 3070.35,2186.76C3073.64,2188.45 3077.37,2189.93 3081.55,2191.22C3085.73,2192.51 3090.02,2193.89 3094.42,2195.36C3098.82,2196.82 3103.11,2198.45 3107.28,2200.22C3111.46,2202 3115.2,2204.22 3118.48,2206.89C3121.77,2209.56 3124.42,2212.82 3126.42,2216.69C3128.42,2220.56 3129.42,2225.2 3129.42,2230.62C3129.42,2236.85 3128.31,2242.6 3126.08,2247.89C3123.86,2253.18 3120.57,2257.76 3116.22,2261.62C3111.86,2265.49 3106.53,2268.53 3100.22,2270.76C3093.91,2272.98 3086.62,2274.09 3078.35,2274.09C3068.93,2274.09 3060.39,2272.56 3052.75,2269.49C3045.11,2266.42 3038.62,2262.49 3033.28,2257.69L3038.88,2248.62C3039.6,2247.47 3040.44,2246.58 3041.42,2245.96C3042.39,2245.34 3043.68,2245.02 3045.28,2245.02C3046.88,2245.02 3048.57,2245.65 3050.35,2246.89C3052.13,2248.14 3054.28,2249.51 3056.82,2251.02C3059.35,2252.53 3062.42,2253.91 3066.02,2255.16C3069.62,2256.4 3074.13,2257.02 3079.55,2257.02C3084.17,2257.02 3088.22,2256.42 3091.68,2255.22C3095.15,2254.02 3098.04,2252.4 3100.35,2250.36C3102.66,2248.31 3104.37,2245.96 3105.48,2243.29C3106.6,2240.62 3107.15,2237.78 3107.15,2234.76C3107.15,2231.02 3106.15,2227.93 3104.15,2225.49C3102.15,2223.05 3099.51,2220.96 3096.22,2219.22C3092.93,2217.49 3089.17,2215.98 3084.95,2214.69C3080.73,2213.4 3076.42,2212.05 3072.02,2210.62C3067.62,2209.2 3063.31,2207.58 3059.08,2205.76C3054.86,2203.93 3051.11,2201.65 3047.82,2198.89C3044.53,2196.14 3041.88,2192.74 3039.88,2188.69C3037.88,2184.65 3036.88,2179.74 3036.88,2173.96C3036.88,2168.8 3037.95,2163.85 3040.08,2159.09C3042.22,2154.34 3045.33,2150.16 3049.42,2146.56C3053.51,2142.96 3058.53,2140.09 3064.48,2137.96C3070.44,2135.82 3077.24,2134.76 3084.88,2134.76C3093.77,2134.76 3101.75,2136.16 3108.82,2138.96C3115.88,2141.76 3121.99,2145.6 3127.15,2150.49L3121.82,2159.16Z" style="fill:rgb(102,103,103);fill-rule:nonzero;"/>
                    <path d="M3237.55,2159.16C3236.48,2161.11 3234.84,2162.09 3232.62,2162.09C3231.28,2162.09 3229.77,2161.6 3228.08,2160.62C3226.39,2159.65 3224.33,2158.56 3221.88,2157.36C3219.44,2156.16 3216.53,2155.05 3213.15,2154.02C3209.77,2153 3205.77,2152.49 3201.15,2152.49C3197.15,2152.49 3193.55,2153 3190.35,2154.02C3187.15,2155.05 3184.42,2156.45 3182.15,2158.22C3179.88,2160 3178.15,2162.07 3176.95,2164.42C3175.75,2166.78 3175.15,2169.34 3175.15,2172.09C3175.15,2175.56 3176.15,2178.45 3178.15,2180.76C3180.15,2183.07 3182.8,2185.07 3186.08,2186.76C3189.37,2188.45 3193.11,2189.93 3197.28,2191.22C3201.46,2192.51 3205.75,2193.89 3210.15,2195.36C3214.55,2196.82 3218.84,2198.45 3223.02,2200.22C3227.2,2202 3230.93,2204.22 3234.22,2206.89C3237.51,2209.56 3240.15,2212.82 3242.15,2216.69C3244.15,2220.56 3245.15,2225.2 3245.15,2230.62C3245.15,2236.85 3244.04,2242.6 3241.82,2247.89C3239.6,2253.18 3236.31,2257.76 3231.95,2261.62C3227.6,2265.49 3222.26,2268.53 3215.95,2270.76C3209.64,2272.98 3202.35,2274.09 3194.08,2274.09C3184.66,2274.09 3176.13,2272.56 3168.48,2269.49C3160.84,2266.42 3154.35,2262.49 3149.02,2257.69L3154.62,2248.62C3155.33,2247.47 3156.17,2246.58 3157.15,2245.96C3158.13,2245.34 3159.42,2245.02 3161.02,2245.02C3162.62,2245.02 3164.31,2245.65 3166.08,2246.89C3167.86,2248.14 3170.02,2249.51 3172.55,2251.02C3175.08,2252.53 3178.15,2253.91 3181.75,2255.16C3185.35,2256.4 3189.86,2257.02 3195.28,2257.02C3199.91,2257.02 3203.95,2256.42 3207.42,2255.22C3210.88,2254.02 3213.77,2252.4 3216.08,2250.36C3218.39,2248.31 3220.11,2245.96 3221.22,2243.29C3222.33,2240.62 3222.88,2237.78 3222.88,2234.76C3222.88,2231.02 3221.88,2227.93 3219.88,2225.49C3217.88,2223.05 3215.24,2220.96 3211.95,2219.22C3208.66,2217.49 3204.91,2215.98 3200.68,2214.69C3196.46,2213.4 3192.15,2212.05 3187.75,2210.62C3183.35,2209.2 3179.04,2207.58 3174.82,2205.76C3170.6,2203.93 3166.84,2201.65 3163.55,2198.89C3160.26,2196.14 3157.62,2192.74 3155.62,2188.69C3153.62,2184.65 3152.62,2179.74 3152.62,2173.96C3152.62,2168.8 3153.68,2163.85 3155.82,2159.09C3157.95,2154.34 3161.06,2150.16 3165.15,2146.56C3169.24,2142.96 3174.26,2140.09 3180.22,2137.96C3186.17,2135.82 3192.97,2134.76 3200.62,2134.76C3209.51,2134.76 3217.48,2136.16 3224.55,2138.96C3231.62,2141.76 3237.73,2145.6 3242.88,2150.49L3237.55,2159.16Z" style="fill:rgb(102,103,103);fill-rule:nonzero;"/>
                    <path d="M3429.02,2110.76C3428.22,2112.09 3427.37,2113.09 3426.48,2113.76C3425.6,2114.42 3424.44,2114.76 3423.02,2114.76C3421.51,2114.76 3419.75,2114 3417.75,2112.49C3415.75,2110.98 3413.22,2109.31 3410.15,2107.49C3407.08,2105.67 3403.39,2104 3399.08,2102.49C3394.77,2100.98 3389.55,2100.22 3383.42,2100.22C3377.64,2100.22 3372.53,2101 3368.08,2102.56C3363.64,2104.11 3359.93,2106.22 3356.95,2108.89C3353.97,2111.56 3351.73,2114.69 3350.22,2118.29C3348.71,2121.89 3347.95,2125.78 3347.95,2129.96C3347.95,2135.29 3349.26,2139.71 3351.88,2143.22C3354.51,2146.74 3357.97,2149.74 3362.28,2152.22C3366.6,2154.71 3371.48,2156.87 3376.95,2158.69C3382.42,2160.51 3388.02,2162.4 3393.75,2164.36C3399.48,2166.31 3405.08,2168.51 3410.55,2170.96C3416.02,2173.4 3420.91,2176.49 3425.22,2180.22C3429.53,2183.96 3432.99,2188.53 3435.62,2193.96C3438.24,2199.38 3439.55,2206.05 3439.55,2213.96C3439.55,2222.31 3438.13,2230.16 3435.28,2237.49C3432.44,2244.82 3428.28,2251.2 3422.82,2256.62C3417.35,2262.05 3410.64,2266.31 3402.68,2269.42C3394.73,2272.53 3385.68,2274.09 3375.55,2274.09C3363.2,2274.09 3351.93,2271.85 3341.75,2267.36C3331.57,2262.87 3322.88,2256.8 3315.68,2249.16L3323.15,2236.89C3323.86,2235.91 3324.73,2235.09 3325.75,2234.42C3326.77,2233.76 3327.91,2233.42 3329.15,2233.42C3331.02,2233.42 3333.15,2234.42 3335.55,2236.42C3337.95,2238.42 3340.95,2240.62 3344.55,2243.02C3348.15,2245.42 3352.51,2247.62 3357.62,2249.62C3362.73,2251.62 3368.97,2252.62 3376.35,2252.62C3382.48,2252.62 3387.95,2251.78 3392.75,2250.09C3397.55,2248.4 3401.62,2246.02 3404.95,2242.96C3408.28,2239.89 3410.84,2236.22 3412.62,2231.96C3414.39,2227.69 3415.28,2222.93 3415.28,2217.69C3415.28,2211.91 3413.97,2207.18 3411.35,2203.49C3408.73,2199.8 3405.28,2196.71 3401.02,2194.22C3396.75,2191.74 3391.88,2189.62 3386.42,2187.89C3380.95,2186.16 3375.35,2184.38 3369.62,2182.56C3363.88,2180.74 3358.28,2178.62 3352.82,2176.22C3347.35,2173.82 3342.48,2170.71 3338.22,2166.89C3333.95,2163.07 3330.51,2158.29 3327.88,2152.56C3325.26,2146.82 3323.95,2139.74 3323.95,2131.29C3323.95,2124.53 3325.26,2118 3327.88,2111.69C3330.51,2105.38 3334.31,2099.78 3339.28,2094.89C3344.26,2090 3350.42,2086.09 3357.75,2083.16C3365.08,2080.22 3373.51,2078.76 3383.02,2078.76C3393.68,2078.76 3403.42,2080.45 3412.22,2083.82C3421.02,2087.2 3428.71,2092.09 3435.28,2098.49L3429.02,2110.76Z" style="fill:rgb(102,103,103);fill-rule:nonzero;"/>
                    <path d="M3523.42,2134.76C3533.28,2134.76 3542.2,2136.4 3550.15,2139.69C3558.11,2142.98 3564.86,2147.65 3570.42,2153.69C3575.97,2159.74 3580.24,2167.05 3583.22,2175.62C3586.2,2184.2 3587.68,2193.78 3587.68,2204.36C3587.68,2215.02 3586.2,2224.62 3583.22,2233.16C3580.24,2241.69 3575.97,2248.98 3570.42,2255.02C3564.86,2261.07 3558.11,2265.71 3550.15,2268.96C3542.2,2272.2 3533.28,2273.82 3523.42,2273.82C3513.55,2273.82 3504.64,2272.2 3496.68,2268.96C3488.73,2265.71 3481.95,2261.07 3476.35,2255.02C3470.75,2248.98 3466.44,2241.69 3463.42,2233.16C3460.39,2224.62 3458.88,2215.02 3458.88,2204.36C3458.88,2193.78 3460.39,2184.2 3463.42,2175.62C3466.44,2167.05 3470.75,2159.74 3476.35,2153.69C3481.95,2147.65 3488.73,2142.98 3496.68,2139.69C3504.64,2136.4 3513.55,2134.76 3523.42,2134.76ZM3523.42,2255.29C3536.75,2255.29 3546.71,2250.82 3553.28,2241.89C3559.86,2232.96 3563.15,2220.49 3563.15,2204.49C3563.15,2188.4 3559.86,2175.87 3553.28,2166.89C3546.71,2157.91 3536.75,2153.42 3523.42,2153.42C3516.66,2153.42 3510.8,2154.58 3505.82,2156.89C3500.84,2159.2 3496.68,2162.53 3493.35,2166.89C3490.02,2171.25 3487.53,2176.6 3485.88,2182.96C3484.24,2189.31 3483.42,2196.49 3483.42,2204.49C3483.42,2212.49 3484.24,2219.65 3485.88,2225.96C3487.53,2232.27 3490.02,2237.58 3493.35,2241.89C3496.68,2246.2 3500.84,2249.51 3505.82,2251.82C3510.8,2254.14 3516.66,2255.29 3523.42,2255.29Z" style="fill:rgb(102,103,103);fill-rule:nonzero;"/>
                    <path d="M3622.35,2271.96L3622.35,2157.16L3607.42,2155.42C3605.55,2154.98 3604.02,2154.29 3602.82,2153.36C3601.62,2152.42 3601.02,2151.07 3601.02,2149.29L3601.02,2139.56L3622.35,2139.56L3622.35,2126.49C3622.35,2118.76 3623.44,2111.89 3625.62,2105.89C3627.8,2099.89 3630.91,2094.82 3634.95,2090.69C3638.99,2086.56 3643.86,2083.42 3649.55,2081.29C3655.24,2079.16 3661.64,2078.09 3668.75,2078.09C3674.8,2078.09 3680.39,2078.98 3685.55,2080.76L3685.02,2092.62C3684.93,2094.4 3684.17,2095.47 3682.75,2095.82C3681.33,2096.18 3679.33,2096.36 3676.75,2096.36L3672.62,2096.36C3668.53,2096.36 3664.82,2096.89 3661.48,2097.96C3658.15,2099.02 3655.28,2100.76 3652.88,2103.16C3650.48,2105.56 3648.64,2108.71 3647.35,2112.62C3646.06,2116.53 3645.42,2121.38 3645.42,2127.16L3645.42,2139.56L3684.48,2139.56L3684.48,2156.76L3646.22,2156.76L3646.22,2271.96L3622.35,2271.96Z" style="fill:rgb(102,103,103);fill-rule:nonzero;"/>
                    <path d="M3747.82,2274.09C3737.15,2274.09 3728.95,2271.11 3723.22,2265.16C3717.48,2259.2 3714.62,2250.62 3714.62,2239.42L3714.62,2156.76L3698.35,2156.76C3696.93,2156.76 3695.73,2156.34 3694.75,2155.49C3693.77,2154.65 3693.28,2153.34 3693.28,2151.56L3693.28,2142.09L3715.42,2139.29L3720.88,2097.56C3721.06,2096.22 3721.64,2095.14 3722.62,2094.29C3723.6,2093.45 3724.84,2093.02 3726.35,2093.02L3738.35,2093.02L3738.35,2139.56L3777.02,2139.56L3777.02,2156.76L3738.35,2156.76L3738.35,2237.82C3738.35,2243.51 3739.73,2247.74 3742.48,2250.49C3745.24,2253.25 3748.8,2254.62 3753.15,2254.62C3755.64,2254.62 3757.8,2254.29 3759.62,2253.62C3761.44,2252.96 3763.02,2252.22 3764.35,2251.42C3765.68,2250.62 3766.82,2249.89 3767.75,2249.22C3768.68,2248.56 3769.51,2248.22 3770.22,2248.22C3771.46,2248.22 3772.57,2248.98 3773.55,2250.49L3780.48,2261.82C3776.39,2265.65 3771.46,2268.65 3765.68,2270.82C3759.91,2273 3753.95,2274.09 3747.82,2274.09Z" style="fill:rgb(102,103,103);fill-rule:nonzero;"/>
                    <path d="M3788.75,2136.89L3807.42,2136.89C3809.37,2136.89 3810.97,2137.38 3812.22,2138.36C3813.46,2139.34 3814.31,2140.49 3814.75,2141.82L3840.62,2228.76C3841.33,2231.96 3841.99,2235.05 3842.62,2238.02C3843.24,2241 3843.77,2244 3844.22,2247.02C3844.93,2244 3845.73,2241 3846.62,2238.02C3847.51,2235.05 3848.44,2231.96 3849.42,2228.76L3877.95,2141.29C3878.39,2139.96 3879.17,2138.85 3880.28,2137.96C3881.39,2137.07 3882.8,2136.62 3884.48,2136.62L3894.75,2136.62C3896.53,2136.62 3897.99,2137.07 3899.15,2137.96C3900.31,2138.85 3901.11,2139.96 3901.55,2141.29L3929.42,2228.76C3930.39,2231.87 3931.26,2234.93 3932.02,2237.96C3932.77,2240.98 3933.51,2243.96 3934.22,2246.89C3934.66,2243.96 3935.24,2240.89 3935.95,2237.69C3936.66,2234.49 3937.42,2231.51 3938.22,2228.76L3964.62,2141.82C3965.06,2140.4 3965.91,2139.22 3967.15,2138.29C3968.39,2137.36 3969.86,2136.89 3971.55,2136.89L3989.42,2136.89L3945.68,2271.96L3926.88,2271.96C3924.57,2271.96 3922.97,2270.45 3922.08,2267.42L3892.22,2175.82C3891.51,2173.78 3890.93,2171.71 3890.48,2169.62C3890.04,2167.53 3889.6,2165.47 3889.15,2163.42C3888.71,2165.47 3888.26,2167.56 3887.82,2169.69C3887.37,2171.82 3886.8,2173.91 3886.08,2175.96L3855.82,2267.42C3854.84,2270.45 3853.02,2271.96 3850.35,2271.96L3832.48,2271.96L3788.75,2136.89Z" style="fill:rgb(102,103,103);fill-rule:nonzero;"/>
                    <path d="M4109.82,2271.96L4099.28,2271.96C4096.97,2271.96 4095.11,2271.6 4093.68,2270.89C4092.26,2270.18 4091.33,2268.67 4090.88,2266.36L4088.22,2253.82C4084.66,2257.02 4081.2,2259.89 4077.82,2262.42C4074.44,2264.96 4070.88,2267.09 4067.15,2268.82C4063.42,2270.56 4059.44,2271.87 4055.22,2272.76C4050.99,2273.65 4046.31,2274.09 4041.15,2274.09C4035.91,2274.09 4030.99,2273.36 4026.42,2271.89C4021.84,2270.42 4017.86,2268.22 4014.48,2265.29C4011.11,2262.36 4008.42,2258.65 4006.42,2254.16C4004.42,2249.67 4003.42,2244.36 4003.42,2238.22C4003.42,2232.89 4004.88,2227.76 4007.82,2222.82C4010.75,2217.89 4015.48,2213.51 4022.02,2209.69C4028.55,2205.87 4037.11,2202.74 4047.68,2200.29C4058.26,2197.85 4071.2,2196.45 4086.48,2196.09L4086.48,2185.56C4086.48,2175.07 4084.24,2167.14 4079.75,2161.76C4075.26,2156.38 4068.62,2153.69 4059.82,2153.69C4054.04,2153.69 4049.17,2154.42 4045.22,2155.89C4041.26,2157.36 4037.84,2159 4034.95,2160.82C4032.06,2162.65 4029.57,2164.29 4027.48,2165.76C4025.39,2167.22 4023.33,2167.96 4021.28,2167.96C4019.68,2167.96 4018.28,2167.53 4017.08,2166.69C4015.88,2165.85 4014.93,2164.8 4014.22,2163.56L4009.95,2155.96C4017.42,2148.76 4025.46,2143.38 4034.08,2139.82C4042.71,2136.27 4052.26,2134.49 4062.75,2134.49C4070.31,2134.49 4077.02,2135.74 4082.88,2138.22C4088.75,2140.71 4093.68,2144.18 4097.68,2148.62C4101.68,2153.07 4104.71,2158.45 4106.75,2164.76C4108.8,2171.07 4109.82,2178 4109.82,2185.56L4109.82,2271.96ZM4048.22,2257.42C4052.39,2257.42 4056.22,2257 4059.68,2256.16C4063.15,2255.31 4066.42,2254.11 4069.48,2252.56C4072.55,2251 4075.48,2249.11 4078.28,2246.89C4081.08,2244.67 4083.82,2242.14 4086.48,2239.29L4086.48,2211.16C4075.55,2211.51 4066.26,2212.38 4058.62,2213.76C4050.97,2215.14 4044.75,2216.93 4039.95,2219.16C4035.15,2221.38 4031.66,2224 4029.48,2227.02C4027.31,2230.05 4026.22,2233.42 4026.22,2237.16C4026.22,2240.71 4026.8,2243.78 4027.95,2246.36C4029.11,2248.93 4030.66,2251.05 4032.62,2252.69C4034.57,2254.34 4036.88,2255.53 4039.55,2256.29C4042.22,2257.05 4045.11,2257.42 4048.22,2257.42Z" style="fill:rgb(102,103,103);fill-rule:nonzero;"/>
                    <path d="M4145.82,2271.96L4145.82,2136.89L4159.42,2136.89C4161.99,2136.89 4163.77,2137.38 4164.75,2138.36C4165.73,2139.34 4166.4,2141.02 4166.75,2143.42L4168.35,2164.49C4172.97,2155.07 4178.68,2147.71 4185.48,2142.42C4192.28,2137.14 4200.26,2134.49 4209.42,2134.49C4213.15,2134.49 4216.53,2134.91 4219.55,2135.76C4222.57,2136.6 4225.37,2137.78 4227.95,2139.29L4224.88,2157.02C4224.26,2159.25 4222.88,2160.36 4220.75,2160.36C4219.51,2160.36 4217.6,2159.93 4215.02,2159.09C4212.44,2158.25 4208.84,2157.82 4204.22,2157.82C4195.95,2157.82 4189.04,2160.22 4183.48,2165.02C4177.93,2169.82 4173.28,2176.8 4169.55,2185.96L4169.55,2271.96L4145.82,2271.96Z" style="fill:rgb(102,103,103);fill-rule:nonzero;"/>
                    <path d="M4306.75,2134.76C4314.84,2134.76 4322.31,2136.11 4329.15,2138.82C4335.99,2141.53 4341.91,2145.45 4346.88,2150.56C4351.86,2155.67 4355.75,2161.98 4358.55,2169.49C4361.35,2177 4362.75,2185.56 4362.75,2195.16C4362.75,2198.89 4362.35,2201.38 4361.55,2202.62C4360.75,2203.87 4359.24,2204.49 4357.02,2204.49L4267.15,2204.49C4267.33,2213.02 4268.48,2220.45 4270.62,2226.76C4272.75,2233.07 4275.68,2238.34 4279.42,2242.56C4283.15,2246.78 4287.6,2249.93 4292.75,2252.02C4297.91,2254.11 4303.68,2255.16 4310.08,2255.16C4316.04,2255.16 4321.17,2254.47 4325.48,2253.09C4329.8,2251.71 4333.51,2250.22 4336.62,2248.62C4339.73,2247.02 4342.33,2245.53 4344.42,2244.16C4346.51,2242.78 4348.31,2242.09 4349.82,2242.09C4351.77,2242.09 4353.28,2242.85 4354.35,2244.36L4361.02,2253.02C4358.08,2256.58 4354.57,2259.67 4350.48,2262.29C4346.4,2264.91 4342.02,2267.07 4337.35,2268.76C4332.68,2270.45 4327.86,2271.71 4322.88,2272.56C4317.91,2273.4 4312.97,2273.82 4308.08,2273.82C4298.75,2273.82 4290.15,2272.25 4282.28,2269.09C4274.42,2265.93 4267.62,2261.31 4261.88,2255.22C4256.15,2249.14 4251.68,2241.6 4248.48,2232.62C4245.28,2223.65 4243.68,2213.34 4243.68,2201.69C4243.68,2192.27 4245.13,2183.47 4248.02,2175.29C4250.91,2167.11 4255.06,2160.02 4260.48,2154.02C4265.91,2148.02 4272.53,2143.31 4280.35,2139.89C4288.17,2136.47 4296.97,2134.76 4306.75,2134.76ZM4307.28,2152.22C4295.82,2152.22 4286.8,2155.53 4280.22,2162.16C4273.64,2168.78 4269.55,2177.96 4267.95,2189.69L4341.42,2189.69C4341.42,2184.18 4340.66,2179.14 4339.15,2174.56C4337.64,2169.98 4335.42,2166.02 4332.48,2162.69C4329.55,2159.36 4325.97,2156.78 4321.75,2154.96C4317.53,2153.14 4312.71,2152.22 4307.28,2152.22Z" style="fill:rgb(102,103,103);fill-rule:nonzero;"/>
                    <path d="M4546.08,2110.76C4545.28,2112.09 4544.44,2113.09 4543.55,2113.76C4542.66,2114.42 4541.51,2114.76 4540.08,2114.76C4538.57,2114.76 4536.82,2114 4534.82,2112.49C4532.82,2110.98 4530.28,2109.31 4527.22,2107.49C4524.15,2105.67 4520.46,2104 4516.15,2102.49C4511.84,2100.98 4506.62,2100.22 4500.48,2100.22C4494.71,2100.22 4489.6,2101 4485.15,2102.56C4480.71,2104.11 4476.99,2106.22 4474.02,2108.89C4471.04,2111.56 4468.8,2114.69 4467.28,2118.29C4465.77,2121.89 4465.02,2125.78 4465.02,2129.96C4465.02,2135.29 4466.33,2139.71 4468.95,2143.22C4471.57,2146.74 4475.04,2149.74 4479.35,2152.22C4483.66,2154.71 4488.55,2156.87 4494.02,2158.69C4499.48,2160.51 4505.08,2162.4 4510.82,2164.36C4516.55,2166.31 4522.15,2168.51 4527.62,2170.96C4533.08,2173.4 4537.97,2176.49 4542.28,2180.22C4546.6,2183.96 4550.06,2188.53 4552.68,2193.96C4555.31,2199.38 4556.62,2206.05 4556.62,2213.96C4556.62,2222.31 4555.19,2230.16 4552.35,2237.49C4549.51,2244.82 4545.35,2251.2 4539.88,2256.62C4534.42,2262.05 4527.71,2266.31 4519.75,2269.42C4511.8,2272.53 4502.75,2274.09 4492.62,2274.09C4480.26,2274.09 4468.99,2271.85 4458.82,2267.36C4448.64,2262.87 4439.95,2256.8 4432.75,2249.16L4440.22,2236.89C4440.93,2235.91 4441.8,2235.09 4442.82,2234.42C4443.84,2233.76 4444.97,2233.42 4446.22,2233.42C4448.08,2233.42 4450.22,2234.42 4452.62,2236.42C4455.02,2238.42 4458.02,2240.62 4461.62,2243.02C4465.22,2245.42 4469.57,2247.62 4474.68,2249.62C4479.8,2251.62 4486.04,2252.62 4493.42,2252.62C4499.55,2252.62 4505.02,2251.78 4509.82,2250.09C4514.62,2248.4 4518.68,2246.02 4522.02,2242.96C4525.35,2239.89 4527.91,2236.22 4529.68,2231.96C4531.46,2227.69 4532.35,2222.93 4532.35,2217.69C4532.35,2211.91 4531.04,2207.18 4528.42,2203.49C4525.8,2199.8 4522.35,2196.71 4518.08,2194.22C4513.82,2191.74 4508.95,2189.62 4503.48,2187.89C4498.02,2186.16 4492.42,2184.38 4486.68,2182.56C4480.95,2180.74 4475.35,2178.62 4469.88,2176.22C4464.42,2173.82 4459.55,2170.71 4455.28,2166.89C4451.02,2163.07 4447.57,2158.29 4444.95,2152.56C4442.33,2146.82 4441.02,2139.74 4441.02,2131.29C4441.02,2124.53 4442.33,2118 4444.95,2111.69C4447.57,2105.38 4451.37,2099.78 4456.35,2094.89C4461.33,2090 4467.48,2086.09 4474.82,2083.16C4482.15,2080.22 4490.57,2078.76 4500.08,2078.76C4510.75,2078.76 4520.48,2080.45 4529.28,2083.82C4538.08,2087.2 4545.77,2092.09 4552.35,2098.49L4546.08,2110.76Z" style="fill:rgb(102,103,103);fill-rule:nonzero;"/>
                    <path d="M4632.48,2134.76C4642.35,2134.76 4651.26,2136.4 4659.22,2139.69C4667.17,2142.98 4673.93,2147.65 4679.48,2153.69C4685.04,2159.74 4689.31,2167.05 4692.28,2175.62C4695.26,2184.2 4696.75,2193.78 4696.75,2204.36C4696.75,2215.02 4695.26,2224.62 4692.28,2233.16C4689.31,2241.69 4685.04,2248.98 4679.48,2255.02C4673.93,2261.07 4667.17,2265.71 4659.22,2268.96C4651.26,2272.2 4642.35,2273.82 4632.48,2273.82C4622.62,2273.82 4613.71,2272.2 4605.75,2268.96C4597.8,2265.71 4591.02,2261.07 4585.42,2255.02C4579.82,2248.98 4575.51,2241.69 4572.48,2233.16C4569.46,2224.62 4567.95,2215.02 4567.95,2204.36C4567.95,2193.78 4569.46,2184.2 4572.48,2175.62C4575.51,2167.05 4579.82,2159.74 4585.42,2153.69C4591.02,2147.65 4597.8,2142.98 4605.75,2139.69C4613.71,2136.4 4622.62,2134.76 4632.48,2134.76ZM4632.48,2255.29C4645.82,2255.29 4655.77,2250.82 4662.35,2241.89C4668.93,2232.96 4672.22,2220.49 4672.22,2204.49C4672.22,2188.4 4668.93,2175.87 4662.35,2166.89C4655.77,2157.91 4645.82,2153.42 4632.48,2153.42C4625.73,2153.42 4619.86,2154.58 4614.88,2156.89C4609.91,2159.2 4605.75,2162.53 4602.42,2166.89C4599.08,2171.25 4596.6,2176.6 4594.95,2182.96C4593.31,2189.31 4592.48,2196.49 4592.48,2204.49C4592.48,2212.49 4593.31,2219.65 4594.95,2225.96C4596.6,2232.27 4599.08,2237.58 4602.42,2241.89C4605.75,2246.2 4609.91,2249.51 4614.88,2251.82C4619.86,2254.14 4625.73,2255.29 4632.48,2255.29Z" style="fill:rgb(102,103,103);fill-rule:nonzero;"/>
                    <rect x="4728.75" y="2075.56" width="23.733" height="196.4" style="fill:rgb(102,103,103);fill-rule:nonzero;"/>
                    <path d="M4814.88,2136.89L4814.88,2223.02C4814.88,2233.25 4817.24,2241.16 4821.95,2246.76C4826.66,2252.36 4833.77,2255.16 4843.28,2255.16C4850.22,2255.16 4856.75,2253.51 4862.88,2250.22C4869.02,2246.93 4874.66,2242.36 4879.82,2236.49L4879.82,2136.89L4903.55,2136.89L4903.55,2271.96L4889.42,2271.96C4886.04,2271.96 4883.91,2270.31 4883.02,2267.02L4881.15,2252.49C4875.28,2258.98 4868.71,2264.2 4861.42,2268.16C4854.13,2272.11 4845.77,2274.09 4836.35,2274.09C4828.97,2274.09 4822.46,2272.87 4816.82,2270.42C4811.17,2267.98 4806.44,2264.53 4802.62,2260.09C4798.8,2255.65 4795.93,2250.27 4794.02,2243.96C4792.11,2237.65 4791.15,2230.67 4791.15,2223.02L4791.15,2136.89L4814.88,2136.89Z" style="fill:rgb(102,103,103);fill-rule:nonzero;"/>
                    <path d="M4983.55,2274.09C4972.88,2274.09 4964.68,2271.11 4958.95,2265.16C4953.22,2259.2 4950.35,2250.62 4950.35,2239.42L4950.35,2156.76L4934.08,2156.76C4932.66,2156.76 4931.46,2156.34 4930.48,2155.49C4929.51,2154.65 4929.02,2153.34 4929.02,2151.56L4929.02,2142.09L4951.15,2139.29L4956.62,2097.56C4956.8,2096.22 4957.37,2095.14 4958.35,2094.29C4959.33,2093.45 4960.57,2093.02 4962.08,2093.02L4974.08,2093.02L4974.08,2139.56L5012.75,2139.56L5012.75,2156.76L4974.08,2156.76L4974.08,2237.82C4974.08,2243.51 4975.46,2247.74 4978.22,2250.49C4980.97,2253.25 4984.53,2254.62 4988.88,2254.62C4991.37,2254.62 4993.53,2254.29 4995.35,2253.62C4997.17,2252.96 4998.75,2252.22 5000.08,2251.42C5001.42,2250.62 5002.55,2249.89 5003.48,2249.22C5004.42,2248.56 5005.24,2248.22 5005.95,2248.22C5007.19,2248.22 5008.31,2248.98 5009.28,2250.49L5016.22,2261.82C5012.13,2265.65 5007.19,2268.65 5001.42,2270.82C4995.64,2273 4989.68,2274.09 4983.55,2274.09Z" style="fill:rgb(102,103,103);fill-rule:nonzero;"/>
                    <path d="M5068.48,2136.89L5068.48,2271.96L5044.75,2271.96L5044.75,2136.89L5068.48,2136.89ZM5073.82,2094.49C5073.82,2096.8 5073.35,2098.96 5072.42,2100.96C5071.48,2102.96 5070.24,2104.74 5068.68,2106.29C5067.13,2107.85 5065.33,2109.07 5063.28,2109.96C5061.24,2110.85 5059.06,2111.29 5056.75,2111.29C5054.44,2111.29 5052.28,2110.85 5050.28,2109.96C5048.28,2109.07 5046.51,2107.85 5044.95,2106.29C5043.4,2104.74 5042.17,2102.96 5041.28,2100.96C5040.4,2098.96 5039.95,2096.8 5039.95,2094.49C5039.95,2092.18 5040.4,2089.98 5041.28,2087.89C5042.17,2085.8 5043.4,2083.98 5044.95,2082.42C5046.51,2080.87 5048.28,2079.65 5050.28,2078.76C5052.28,2077.87 5054.44,2077.42 5056.75,2077.42C5059.06,2077.42 5061.24,2077.87 5063.28,2078.76C5065.33,2079.65 5067.13,2080.87 5068.68,2082.42C5070.24,2083.98 5071.48,2085.8 5072.42,2087.89C5073.35,2089.98 5073.82,2092.18 5073.82,2094.49Z" style="fill:rgb(102,103,103);fill-rule:nonzero;"/>
                    <path d="M5165.02,2134.76C5174.88,2134.76 5183.8,2136.4 5191.75,2139.69C5199.71,2142.98 5206.46,2147.65 5212.02,2153.69C5217.57,2159.74 5221.84,2167.05 5224.82,2175.62C5227.8,2184.2 5229.28,2193.78 5229.28,2204.36C5229.28,2215.02 5227.8,2224.62 5224.82,2233.16C5221.84,2241.69 5217.57,2248.98 5212.02,2255.02C5206.46,2261.07 5199.71,2265.71 5191.75,2268.96C5183.8,2272.2 5174.88,2273.82 5165.02,2273.82C5155.15,2273.82 5146.24,2272.2 5138.28,2268.96C5130.33,2265.71 5123.55,2261.07 5117.95,2255.02C5112.35,2248.98 5108.04,2241.69 5105.02,2233.16C5101.99,2224.62 5100.48,2215.02 5100.48,2204.36C5100.48,2193.78 5101.99,2184.2 5105.02,2175.62C5108.04,2167.05 5112.35,2159.74 5117.95,2153.69C5123.55,2147.65 5130.33,2142.98 5138.28,2139.69C5146.24,2136.4 5155.15,2134.76 5165.02,2134.76ZM5165.02,2255.29C5178.35,2255.29 5188.31,2250.82 5194.88,2241.89C5201.46,2232.96 5204.75,2220.49 5204.75,2204.49C5204.75,2188.4 5201.46,2175.87 5194.88,2166.89C5188.31,2157.91 5178.35,2153.42 5165.02,2153.42C5158.26,2153.42 5152.4,2154.58 5147.42,2156.89C5142.44,2159.2 5138.28,2162.53 5134.95,2166.89C5131.62,2171.25 5129.13,2176.6 5127.48,2182.96C5125.84,2189.31 5125.02,2196.49 5125.02,2204.49C5125.02,2212.49 5125.84,2219.65 5127.48,2225.96C5129.13,2232.27 5131.62,2237.58 5134.95,2241.89C5138.28,2246.2 5142.44,2249.51 5147.42,2251.82C5152.4,2254.14 5158.26,2255.29 5165.02,2255.29Z" style="fill:rgb(102,103,103);fill-rule:nonzero;"/>
                    <path d="M5258.62,2271.96L5258.62,2136.89L5272.75,2136.89C5276.13,2136.89 5278.26,2138.53 5279.15,2141.82L5281.02,2156.49C5286.88,2150 5293.44,2144.76 5300.68,2140.76C5307.93,2136.76 5316.31,2134.76 5325.82,2134.76C5333.19,2134.76 5339.71,2135.98 5345.35,2138.42C5350.99,2140.87 5355.71,2144.34 5359.48,2148.82C5363.26,2153.31 5366.13,2158.71 5368.08,2165.02C5370.04,2171.34 5371.02,2178.31 5371.02,2185.96L5371.02,2271.96L5347.28,2271.96L5347.28,2185.96C5347.28,2175.74 5344.95,2167.8 5340.28,2162.16C5335.62,2156.51 5328.48,2153.69 5318.88,2153.69C5311.86,2153.69 5305.31,2155.38 5299.22,2158.76C5293.13,2162.14 5287.51,2166.71 5282.35,2172.49L5282.35,2271.96L5258.62,2271.96Z" style="fill:rgb(102,103,103);fill-rule:nonzero;"/>
                    <path d="M5484.22,2159.16C5483.15,2161.11 5481.51,2162.09 5479.28,2162.09C5477.95,2162.09 5476.44,2161.6 5474.75,2160.62C5473.06,2159.65 5470.99,2158.56 5468.55,2157.36C5466.11,2156.16 5463.19,2155.05 5459.82,2154.02C5456.44,2153 5452.44,2152.49 5447.82,2152.49C5443.82,2152.49 5440.22,2153 5437.02,2154.02C5433.82,2155.05 5431.08,2156.45 5428.82,2158.22C5426.55,2160 5424.82,2162.07 5423.62,2164.42C5422.42,2166.78 5421.82,2169.34 5421.82,2172.09C5421.82,2175.56 5422.82,2178.45 5424.82,2180.76C5426.82,2183.07 5429.46,2185.07 5432.75,2186.76C5436.04,2188.45 5439.77,2189.93 5443.95,2191.22C5448.13,2192.51 5452.42,2193.89 5456.82,2195.36C5461.22,2196.82 5465.51,2198.45 5469.68,2200.22C5473.86,2202 5477.6,2204.22 5480.88,2206.89C5484.17,2209.56 5486.82,2212.82 5488.82,2216.69C5490.82,2220.56 5491.82,2225.2 5491.82,2230.62C5491.82,2236.85 5490.71,2242.6 5488.48,2247.89C5486.26,2253.18 5482.97,2257.76 5478.62,2261.62C5474.26,2265.49 5468.93,2268.53 5462.62,2270.76C5456.31,2272.98 5449.02,2274.09 5440.75,2274.09C5431.33,2274.09 5422.8,2272.56 5415.15,2269.49C5407.51,2266.42 5401.02,2262.49 5395.68,2257.69L5401.28,2248.62C5401.99,2247.47 5402.84,2246.58 5403.82,2245.96C5404.8,2245.34 5406.08,2245.02 5407.68,2245.02C5409.28,2245.02 5410.97,2245.65 5412.75,2246.89C5414.53,2248.14 5416.68,2249.51 5419.22,2251.02C5421.75,2252.53 5424.82,2253.91 5428.42,2255.16C5432.02,2256.4 5436.53,2257.02 5441.95,2257.02C5446.57,2257.02 5450.62,2256.42 5454.08,2255.22C5457.55,2254.02 5460.44,2252.4 5462.75,2250.36C5465.06,2248.31 5466.77,2245.96 5467.88,2243.29C5468.99,2240.62 5469.55,2237.78 5469.55,2234.76C5469.55,2231.02 5468.55,2227.93 5466.55,2225.49C5464.55,2223.05 5461.91,2220.96 5458.62,2219.22C5455.33,2217.49 5451.57,2215.98 5447.35,2214.69C5443.13,2213.4 5438.82,2212.05 5434.42,2210.62C5430.02,2209.2 5425.71,2207.58 5421.48,2205.76C5417.26,2203.93 5413.51,2201.65 5410.22,2198.89C5406.93,2196.14 5404.28,2192.74 5402.28,2188.69C5400.28,2184.65 5399.28,2179.74 5399.28,2173.96C5399.28,2168.8 5400.35,2163.85 5402.48,2159.09C5404.62,2154.34 5407.73,2150.16 5411.82,2146.56C5415.91,2142.96 5420.93,2140.09 5426.88,2137.96C5432.84,2135.82 5439.64,2134.76 5447.28,2134.76C5456.17,2134.76 5464.15,2136.16 5471.22,2138.96C5478.28,2141.76 5484.4,2145.6 5489.55,2150.49L5484.22,2159.16Z" style="fill:rgb(102,103,103);fill-rule:nonzero;"/>
                </g>
            </g>
        </g>
    </g>
</svg>
