<?xml version="1.0" encoding="UTF-8" standalone="no"?>
<svg
   version="1.1"
   id="svg4197"
   viewBox="0 0 902.70711 415.11338"
   height="117.15422mm"
   width="254.76401mm"
   sodipodi:docname="synergi_logo_full.svg"
   inkscape:version="1.4.2 (ebf0e940d0, 2025-05-08)"
   xmlns:inkscape="http://www.inkscape.org/namespaces/inkscape"
   xmlns:sodipodi="http://sodipodi.sourceforge.net/DTD/sodipodi-0.dtd"
   xmlns="http://www.w3.org/2000/svg"
   xmlns:svg="http://www.w3.org/2000/svg"
   xmlns:rdf="http://www.w3.org/1999/02/22-rdf-syntax-ns#"
   xmlns:cc="http://creativecommons.org/ns#"
   xmlns:dc="http://purl.org/dc/elements/1.1/">
  <sodipodi:namedview
     id="namedview1"
     pagecolor="#ffffff"
     bordercolor="#000000"
     borderopacity="0.25"
     inkscape:showpageshadow="2"
     inkscape:pageopacity="0.0"
     inkscape:pagecheckerboard="0"
     inkscape:deskcolor="#d1d1d1"
     inkscape:document-units="mm"
     inkscape:zoom="1.3277354"
     inkscape:cx="389.76139"
     inkscape:cy="118.24645"
     inkscape:window-width="2560"
     inkscape:window-height="1284"
     inkscape:window-x="0"
     inkscape:window-y="0"
     inkscape:window-maximized="1"
     inkscape:current-layer="layer1" />
  <defs
     id="defs4199" />
  <metadata
     id="metadata4202">
    <rdf:RDF>
      <cc:Work
         rdf:about="">
        <dc:format>image/svg+xml</dc:format>
        <dc:type
           rdf:resource="http://purl.org/dc/dcmitype/StillImage" />
      </cc:Work>
    </rdf:RDF>
  </metadata>
  <g
     transform="translate(102.78212,-230.5198)"
     id="layer1">
    <g
       id="g28">
      <g
         id="g27">
        <g
           id="g25">
          <path
             style="fill:#ffa000;fill-opacity:1;fill-rule:nonzero;stroke:none"
             d="m 544.28238,479.32068 v 27.3125 h 9.8379 c 2.033,0 3.9742,-0.29403 5.8242,-0.88671 1.854,-0.59281 3.4859,-1.45967 4.9023,-2.60547 1.4123,-1.1418 2.5376,-2.5593 3.3731,-4.24219 0.8355,-1.68686 1.2539,-3.6317 1.2539,-5.84375 0,-2.4945 -0.4297,-4.61871 -1.293,-6.36524 -0.8593,-1.75054 -2.0261,-3.17156 -3.4902,-4.26562 -1.468,-1.09409 -3.1811,-1.88174 -5.1504,-2.37109 -1.9654,-0.48936 -4.0423,-0.73243 -6.2305,-0.73243 z m 6.0195,5.55469 h 3.5488 c 1.2612,0 2.4617,0.15812 3.6075,0.48047 1.1418,0.32226 2.1409,0.80471 2.9883,1.44922 0.8514,0.64051 1.524,1.46053 2.0253,2.45117 0.5013,0.98667 0.752,2.15152 0.752,3.48828 0,1.54367 -0.2507,2.84784 -0.752,3.91406 -0.5013,1.07022 -1.1892,1.9295 -2.0605,2.58594 -0.8753,0.65645 -1.9099,1.12573 -3.1074,1.4082 -1.1975,0.28257 -2.4904,0.42579 -3.8789,0.42579 h -3.1231 z"
             id="path20" />
          <path
             style="fill:#ffa000;fill-opacity:1;fill-rule:nonzero;stroke:none"
             d="m 513.26678,479.32068 v 27.3125 h 19.25 v -5.55468 h -13.2325 v -5.55664 h 11.8457 v -5.55469 h -11.8457 v -5.0918 h 12.5372 v -5.55469 z"
             id="path19" />
          <path
             style="fill:#ffa000;fill-opacity:1;fill-rule:nonzero;stroke:none"
             d="m 481.43858,479.32068 v 5.32422 h 7.793 v 21.98828 h 6.0195 V 484.6449 h 7.7911 v -5.32422 z"
             id="path18" />
          <path
             style="fill:#ffa000;fill-opacity:1;fill-rule:nonzero;stroke:none"
             d="m 465.50498,479.32068 v 27.3125 h 6.0196 v -27.3125 z"
             id="path17" />
          <path
             style="fill:#ffa000;fill-opacity:1;fill-rule:nonzero;stroke:none"
             d="m 422.21988,479.32068 v 27.3125 h 6.0196 v -20.94726 h 0.08 l 6.9024,20.94726 h 4.5918 l 7.1777,-20.94726 h 0.074 v 20.94726 h 6.0196 v -27.3125 h -9.0664 l -6.3262,17.82422 h -0.074 l -6.291,-17.82422 h -9.1055 z"
             id="path16" />
          <path
             style="fill:#ffa000;fill-opacity:1;fill-rule:nonzero;stroke:none"
             d="m 403.77848,479.32068 v 27.3125 h 6.0195 v -27.3125 z"
             id="path15" />
          <path
             style="fill:#ffa000;fill-opacity:1;fill-rule:nonzero;stroke:none"
             d="m 376.42688,479.32068 v 27.3125 h 17.1699 v -5.55468 h -11.1504 v -21.75782 z"
             id="path14" />
        </g>
        <g
           id="g26">
          <path
             style="fill:#ffa000;fill-opacity:1;fill-rule:nonzero;stroke:none"
             d="m 321.60658,479.32068 v 27.3125 h 6.0195 V 494.8285 h 11.6895 v 11.80468 h 6.0195 v -27.3125 h -6.0195 v 10.18555 h -11.6895 v -10.18555 z"
             id="path13" />
          <path
             style="fill:#ffa000;fill-opacity:1;fill-rule:nonzero;stroke:none"
             d="m 257.21988,479.32068 v 27.3125 h 19.2519 v -5.55468 h -13.2324 v -5.55664 h 11.8437 v -5.55469 h -11.8437 v -5.0918 h 12.5351 v -5.55469 z"
             id="path12" />
          <path
             style="fill:#ffa000;fill-opacity:1;fill-rule:nonzero;stroke:none"
             d="m 225.39168,479.32068 v 5.32422 h 7.795 v 21.98828 h 6.0195 V 484.6449 h 7.789 v -5.32422 z"
             id="path11" />
          <path
             style="fill:#ffa000;fill-opacity:1;fill-rule:nonzero;stroke:none"
             d="m 301.50888,478.62537 c -2.1364,0 -4.102,0.33357 -5.9043,1.00195 -1.7982,0.66838 -3.355,1.62774 -4.6679,2.87696 -1.3129,1.24528 -2.3305,2.75685 -3.0665,4.53125 -0.732,1.77441 -1.0976,3.75527 -1.0976,5.93945 0,2.18815 0.3656,4.16895 1.0976,5.94336 0.736,1.77438 1.7536,3.286 3.0665,4.53125 1.3129,1.24925 2.8697,2.20466 4.6679,2.87305 1.8023,0.66838 3.7679,1.00586 5.9043,1.00586 1.8779,0 3.7022,-0.38441 5.4766,-1.15625 1.7744,-0.7718 3.2426,-1.97064 4.4004,-3.58985 l -5.0157,-3.74219 c -0.6166,0.927 -1.4006,1.64694 -2.3554,2.16016 -0.9509,0.51719 -2.046,0.77149 -3.2793,0.77149 -1.0782,0 -2.0884,-0.21852 -3.0274,-0.65625 -0.9389,-0.43764 -1.7549,-1.04631 -2.4511,-1.83008 -0.6923,-0.78374 -1.2408,-1.71113 -1.6387,-2.77735 -0.3978,-1.07022 -0.5957,-2.24417 -0.5957,-3.5332 0,-1.25721 0.1979,-2.43161 0.5957,-3.50977 0.3979,-1.08216 0.952,-2.0131 1.6601,-2.79687 0.7082,-0.78373 1.5431,-1.39637 2.5059,-1.83398 0.9668,-0.43764 2.0126,-0.65625 3.1465,-0.65625 1.1299,0 2.1289,0.19604 2.9883,0.58203 0.8633,0.38593 1.5869,0.93811 2.1797,1.6582 l 4.6308,-3.7793 c -0.5928,-0.74796 -1.2599,-1.37734 -2.0078,-1.89453 -0.744,-0.51322 -1.5244,-0.9221 -2.332,-1.23242 -0.8116,-0.31032 -1.6353,-0.53255 -2.4707,-0.67578 -0.8355,-0.13934 -1.6384,-0.21094 -2.4102,-0.21094 z"
             id="path10" />
        </g>
        <g
           id="g24">
          <path
             style="fill:#ffa000;fill-opacity:1;fill-rule:nonzero;stroke:none"
             d="m 400.36438,370.9867 v 73.95703 h 16.2949 v -52.64844 h 0.207 l 32.2813,52.64844 h 21.3086 V 370.9867 h -16.2969 v 51.39453 h -0.2109 l -31.4414,-51.39453 h -22.1446 z"
             id="path9" />
          <path
             style="fill:#ffa000;fill-opacity:1;fill-rule:nonzero;stroke:none"
             d="m 302.17298,370.9867 27.7851,42.41016 v 31.54687 h 16.2969 v -31.54687 l 27.7852,-42.41016 h -19.3243 l -16.6093,27.68164 -15.6719,-27.68164 z"
             id="path8" />
          <path
             style="fill:#ffa000;fill-opacity:1;fill-rule:nonzero;stroke:none"
             d="m 783.62998,370.9847 v 73.95898 h 16.295 V 370.9847 Z"
             id="path7" />
          <path
             style="fill:#ffa000;fill-opacity:1;fill-rule:nonzero;stroke:none"
             d="m 593.09288,370.9847 v 73.95898 h 16.295 v -29.5625 h 8.0449 l 15.4609,29.5625 h 19.5332 l -18.8008,-31.23437 c 5.2197,-0.97473 9.189,-3.28912 11.9063,-6.94532 2.7172,-3.6562 4.0742,-8.09658 4.0742,-13.32031 0,-4.31665 -0.7482,-7.91818 -2.248,-10.81055 -1.4959,-2.88836 -3.5164,-5.18776 -6.0586,-6.89453 -2.5423,-1.70676 -5.5013,-2.92419 -8.875,-3.65625 -3.3817,-0.73202 -6.9474,-1.09765 -10.711,-1.09765 z m 16.295,13.78911 h 10.6543 c 1.4641,0 2.9604,0.1037 4.4921,0.31445 1.5317,0.20678 2.8887,0.60837 4.0743,1.20117 1.1855,0.59278 2.16,1.44464 2.9238,2.5586 0.7679,1.11396 1.1504,2.61436 1.1504,4.49218 0,2.02108 -0.4334,3.58722 -1.3047,4.70118 -0.8713,1.11399 -1.9702,1.93389 -3.291,2.45508 -1.3249,0.52118 -2.8043,0.836 -4.4395,0.93945 -1.6351,0.10354 -3.1864,0.1582 -4.6465,0.1582 h -9.6132 z"
             id="path6" />
          <path
             style="fill:#ffa000;fill-opacity:1;fill-rule:nonzero;stroke:none"
             d="m 507.01678,370.9847 v 73.95898 h 52.1269 v -15.04102 h -35.8301 V 414.8597 h 32.0704 v -15.04297 h -32.0704 v -13.78907 h 33.9473 V 370.9847 Z"
             id="path5" />
          <path
             style="fill:#ffa000;fill-opacity:1;fill-rule:nonzero;stroke:none"
             d="m 717.61048,369.10774 c -5.7807,0 -11.1069,0.90271 -15.9805,2.71289 -4.8776,1.81419 -9.0917,4.40753 -12.6445,7.78125 -3.5487,3.38172 -6.3174,7.47135 -8.3027,12.27735 -1.9853,4.802 -2.9766,10.16994 -2.9766,16.08593 0,5.91995 0.9913,11.28191 2.9766,16.0879 1.9853,4.802 4.754,8.89571 8.3027,12.27343 3.5528,3.37772 7.7669,5.973 12.6445,7.78321 4.8736,1.81021 10.1998,2.71679 15.9805,2.71679 5.4306,0 10.7587,-0.56188 15.9824,-1.67187 5.2237,-1.11399 10.237,-2.92716 15.043,-5.4336 v -38.65039 h -28.9355 v 15.04102 h 13.2675 v 12.01562 c -1.5357,0.83548 -3.588,1.6554 -6.166,2.45508 -2.5741,0.79967 -5.6386,1.20117 -9.1914,1.20117 -3.4851,0 -6.6324,-0.59174 -9.4531,-1.77734 -2.8208,-1.18161 -5.2427,-2.83839 -7.2598,-4.96289 -2.0211,-2.1245 -3.5683,-4.62921 -4.6504,-7.51758 -1.0782,-2.89236 -1.6191,-6.07541 -1.6191,-9.56055 0,-3.40955 0.5409,-6.58168 1.6191,-9.50585 1.0821,-2.92417 2.6293,-5.44972 4.6504,-7.57422 2.0171,-2.1245 4.439,-3.77537 7.2598,-4.96094 2.8207,-1.18161 5.968,-1.77539 9.4531,-1.77539 4.1774,0 7.6585,0.59378 10.4434,1.77539 2.7849,1.18557 5.2954,2.9231 7.5234,5.22266 l 11.4902,-12.53516 c -3.7597,-3.48114 -8.1322,-5.93697 -13.1093,-7.36523 -4.981,-1.42825 -10.4317,-2.13868 -16.3477,-2.13868 z"
             id="path4" />
          <path
             style="fill:#ffa000;fill-opacity:1;fill-rule:nonzero;stroke:none"
             d="m 255.99918,369.10574 c -3.6205,0 -7.1373,0.5051 -10.5508,1.51563 -3.4096,1.01053 -6.4213,2.52191 -9.0352,4.54296 -2.6099,2.02105 -4.6981,4.52772 -6.2656,7.51954 -1.5675,2.99578 -2.3516,6.47678 -2.3516,10.44726 0,4.10978 0.8499,7.41545 2.5567,9.92188 1.7067,2.5104 3.8477,4.52884 6.4257,6.06054 2.5741,1.5357 5.3636,2.75313 8.3594,3.65625 2.9918,0.90709 5.7755,1.81371 8.3535,2.7168 2.5781,0.90709 4.7191,2.00003 6.4258,3.28906 1.7068,1.28902 2.5586,3.04744 2.5586,5.27539 0,1.32483 -0.3298,2.47455 -0.9902,3.44532 -0.6644,0.9787 -1.5331,1.77968 -2.6153,2.40429 -1.0781,0.6286 -2.2936,1.09782 -3.6543,1.41211 -1.3566,0.31432 -2.6986,0.46875 -4.0195,0.46875 -2.7173,0 -5.3464,-0.60875 -7.8887,-1.82617 -2.5422,-1.2214 -4.6474,-2.94393 -6.3183,-5.17188 l -11.5977,12.74414 c 3.5528,3.27427 7.3805,5.64141 11.4903,7.10547 4.1097,1.46011 8.5651,2.19141 13.3711,2.19141 3.8312,0 7.4726,-0.4901 10.9179,-1.46484 3.4454,-0.9747 6.4761,-2.46919 9.086,-4.49024 2.6138,-2.01709 4.683,-4.55963 6.2187,-7.62304 1.5277,-3.06341 2.2949,-6.65198 2.2949,-10.76172 0,-4.31665 -0.8349,-7.7618 -2.5058,-10.33985 -1.671,-2.57804 -3.7801,-4.63236 -6.3184,-6.16406 -2.5462,-1.5317 -5.275,-2.71725 -8.2031,-3.55273 -2.9242,-0.83548 -5.657,-1.67039 -8.1992,-2.50586 -2.5423,-0.83548 -4.6474,-1.84565 -6.3184,-3.03125 -1.6709,-1.18161 -2.5058,-2.88927 -2.5058,-5.11719 0,-1.39248 0.3467,-2.57801 1.0429,-3.55274 0.6962,-0.97474 1.6028,-1.7568 2.7168,-2.3496 1.114,-0.5888 2.2956,-1.02817 3.5528,-1.30665 1.2532,-0.2784 2.4706,-0.41601 3.6562,-0.41601 2.0171,0 4.1581,0.40149 6.4219,1.20117 2.2637,0.79967 4.058,2.03607 5.3828,3.70703 l 11.1738,-12.2207 c -3.135,-2.78492 -6.6519,-4.77146 -10.5508,-5.95703 -3.8989,-1.18161 -7.9358,-1.77344 -12.1171,-1.77344 z"
             id="path3" />
        </g>
      </g>
      <path
         id="path24"
         style="fill:#ffa000;fill-opacity:1;fill-rule:nonzero;stroke:none"
         d="M 71.040178,623.4535 -102.77822,523.09217 v -30.2793 L 97.254978,608.31483 Z m 0,-8.61719 11.291,-6.52148 -177.650401,-102.58008 v 13.04883 z M 32.565578,230.5198 -102.77822,308.67996 V 338.9573 L 58.782378,245.65847 Z m 0,8.61328 11.2949,6.52539 -139.179701,80.37305 v -13.04687 z m 38.4746,13.58594 -173.818398,100.36133 v 30.2793 L 97.254978,267.85769 Z m 0,8.61719 11.291,6.52148 -177.650401,102.58008 v -13.04883 z m 38.439402,13.58789 -212.2617,122.58789 v 22.00781 l 160.398398,92.60742 -25.0312,14.47071 -135.367198,-78.16211 v 30.28125 l 212.2617,122.53515 58.4531,-33.70507 v -30.2793 l -58.4531,33.73242 -12.232402,-7.06055 70.685502,-40.82421 v -30.25196 l -96.900302,55.9336 -12.2286,-7.0586 109.128902,-63.02148 V 456.7073 L 7.5283771,364.09988 32.585078,349.63113 167.93268,427.76394 v -30.27539 l -109.128902,-63 12.2286,-7.06054 96.900302,55.93164 v -30.27539 l -70.689402,-40.79883 12.236302,-7.08203 58.4531,33.75781 v -30.28125 z m 0,8.61719 50.9883,29.44726 v 13.04688 l -50.9883,-29.44922 -27.148402,15.70703 78.136702,45.09961 v 13.04883 l -89.435502,-51.63281 -27.1524,15.68359 116.587902,67.30469 v 13.04492 L 32.585078,341.01394 -7.3954229,364.09988 160.46788,461.0159 v 13.39257 l -116.587902,67.33008 27.1524,15.67578 89.435502,-51.6289 v 13.02148 l -78.140602,45.13281 27.152302,15.67774 50.9883,-29.42774 v 13.04883 L 109.48548,592.63894 -95.323123,474.40847 V 461.3616 l 127.908201,73.85351 39.9512,-23.09179 -167.859401,-96.91602 v -13.39062 z m -128.166003,87.08403 -27.2129,15.67188 168.207003,97.10156 27.1485,-15.70313 z m -0.0039,8.61333 153.234403,88.46094 -12.2403,7.08203 -153.263603,-88.47656 z m -38.4707,13.58594 -27.1543,15.67969 168.173801,97.09765 27.154302,-15.67773 -168.173803,-97.09971 z m 0,8.61328 153.250001,88.48633 -12.2305,7.06055 -153.250001,-88.48047 z m -45.617197,135.83008 v 30.27539 l 135.294898,78.08984 26.2227,-15.11523 z m 7.458997,12.92187 139.126901,80.32422 -11.2871,6.50586 -127.839801,-73.78515 z"
         sodipodi:nodetypes="ccccccccccccccccccccccccccccccccccccccccccccccccccccccccccccccccccccccccccccccccccccccccccccccccccccccccccccccccccccccccccc" />
    </g>
  </g>
</svg>
